<svg transform="scale(2)" version="1.1" id="Layer_1" xmlns="http://www.w3.org/2000/svg" xmlns:xlink="http://www.w3.org/1999/xlink" x="0px" y="0px" viewBox="0 0 500 500" xml:space="preserve" class="show_show__wrapper__graphic__5Waiy "><title>React</title><style type="text/css">
	.st0{fill:#E1FDFF;}
	.st1{fill:#68E1FD;}
	.st2{opacity:0.15;fill:#6D320B;enable-background:new    ;}
	.st3{fill:#FFA133;}
	.st4{fill:#6D320B;}
	.st5{fill:#ED6B84;}
	.st6{fill:#FFC931;}
	.st7{fill:#29ABE2;}
	.st8{fill:#9EDC33;}
	.st9{fill:#95CE29;}
	.st10{fill:#FF8597;}
	.st11{opacity:0.1;fill:#6D320B;enable-background:new    ;}
</style><ellipse class="st0" id="Base" cx="237.5" cy="389.5" rx="141.1" ry="69.8"></ellipse><g id="Box"><path class="st1" d="M165.7,342.5l69.2-39.2c7.2-4.1,16.1-4.1,23.3,0l56,32.2c3.2,1.8,4.3,5.9,2.5,9.1c-0.4,0.7-0.9,1.2-1.4,1.7
		l-85.4,73.4L164,355.2c-3.2-3.1-3.2-8.1-0.2-11.3C164.4,343.3,165,342.8,165.7,342.5L165.7,342.5z"></path><path class="st2" d="M165.7,342.5l69.2-39.2c7.2-4.1,16.1-4.1,23.3,0l56,32.2c3.2,1.8,4.3,5.9,2.5,9.1c-0.4,0.7-0.9,1.2-1.4,1.7
		l-85.4,73.4L164,355.2c-3.2-3.1-3.2-8.1-0.2-11.3C164.4,343.3,165,342.8,165.7,342.5L165.7,342.5z"></path><path class="st2" d="M313.7,335.6l-56-32.2c-3.4-2-7.3-3.1-11.2-3.1v104.9l68.3-58.7c2.8-2.4,3.1-6.6,0.7-9.4
		C315,336.5,314.4,336,313.7,335.6L313.7,335.6z"></path><path class="st1" d="M317.1,343.4l-71,41.9c-7.7,4.5-17.3,4.6-25,0.1l-59.6-34.7v70.6c0,5.3,2.8,10.1,7.4,12.7l55.3,30.9
		c4.9,2.7,10.9,2.7,15.8,0l70.8-39.7c3.9-2.2,6.4-6.4,6.4-10.9L317.1,343.4z"></path></g><g id="Baloon_and_Character"><path class="st3" d="M168.6,354.9l43.3,25.1l-5.8-37l-35.6-6.9C169.5,342.3,168.9,348.6,168.6,354.9z"></path><path class="st4" d="M261.2,315.5c1.3-3.5,2.5-7.1,3.7-10.8c1.9-5.1,3.3-10.5,4-15.9c-0.9-2.5-4.4-4.5-6.8-5.1
		c-3-0.7-6.1,0.6-9.1,0.5c-4,0-7.1-1.6-10.9-2.7c-3.8-1-7.9-0.8-11.6,0.5c-7.2,2.2-14.5,1.5-20.5-3.3c-3.4-2.7-6-4.9-10.3-6
		c-6.6-1.7-13.4-0.5-17.8,5c-3.9,5-4.8,11.6-0.6,16.7c2.2,2.4,5.1,4.1,8.4,4.7c2.9,0.8,5.6,2.5,8.6,3.1h0.3c2.8,0.2,5.6,0.6,8.4,1.1
		c3.5,1,6.8,2.8,10.2,4c4.6,1.6,9,1,13.7,0.4c6-0.8,9.2,1.1,13.8,4.5l0.9,0.6c3.3,2,7.1,3,10.9,2.9
		C258.1,316,259.7,315.8,261.2,315.5z"></path><path class="st5" d="M149.1,271.7c-1-1.8-2.1-3.7-3-5.7c-0.3-3.6-0.5-7.1-0.4-10.7c0.3-1.5,0.3-3,0-4.5c-0.1-1-1-1.8-2-1.8
		c-0.1,0-0.3,0-0.4,0.1c-1.3,0.6-2.3,1.8-2.4,3.3c-0.2,1.2-0.4,2.4-0.6,3.6c-1.8-3.3-3.4-6.7-4.8-10.2c-0.9-2.2-4.5-1.1-3.6,1.2
		l1,2.4c-0.9-1.3-1.8-2.6-2.9-3.8c-1.2-1.5-4.2-0.5-3.3,1.6c1.2,2.9,2.6,5.7,4.2,8.4c-1.3-1.6-2.6-3.3-3.8-5c-1.4-2-4.5,0.1-3.1,2.1
		c1.7,2.4,3.5,4.8,5.5,7c-1.1-0.5-2.2-1-3.2-1.4c-2.2-0.9-3.9,2.4-1.7,3.3s4.2,1.9,6.3,2.9l0.1,0.2c3.2,5.8,6.6,11.5,10,17.1
		c1.2,2.1,4.4,0,3.1-2.1l-1.6-2.6c0.6-0.2,1.1-0.5,1.4-1c0.9,0.5,2,0.3,2.6-0.6c0,0,0,0,0,0c0.2-0.3,0.3-0.6,0.3-1
		c1,0.5,2.1,0,2.6-0.9C149.5,272.9,149.4,272.3,149.1,271.7L149.1,271.7z"></path><path class="st4" d="M138.4,257.1c-2.1,2.3-4.1,5-3.3,8.2c0.2,0.7,1.2,0.4,1-0.2c-0.8-2.9,1.1-5.2,3-7.2
		C139.6,257.3,138.9,256.6,138.4,257.1z"></path><path class="st4" d="M136,255c-1.3-2.7-2.5-5.6-3.5-8.4c-0.1-0.5-0.9-0.3-0.8,0.2c1,2.9,2.2,5.8,3.5,8.6
		C135.5,255.8,136.2,255.4,136,255z"></path><path class="st4" d="M132.4,257c-2.2-3.1-3.9-6.5-5.2-10c-0.2-0.5-0.9-0.3-0.8,0.2c1.3,3.6,3,7,5.2,10.2
		C132,257.7,132.7,257.4,132.4,257z"></path><path class="st4" d="M130.6,261c-2-2.3-3.8-4.8-5.4-7.5c-0.2-0.4-1,0-0.7,0.4c1.6,2.7,3.4,5.3,5.5,7.7
		C130.4,261.9,131,261.4,130.6,261z"></path><path class="st6" d="M199.9,295.9l-12.8-2.6c-10.8-0.4-21.1-5-28.6-12.8c-4.5-4.6-8.4-9.8-11.7-15.3c-3.9,2.3-7.3,5.3-10.2,8.7
		c-1.5,1.7-2.9,3.6-4.2,5.5c5.6,11.6,19.6,30,36.6,36.5c0,0,0,12.6,0.5,27.4c11.4,9,26.6,11.4,40.2,6.3
		C209.7,349.6,204.3,302.1,199.9,295.9z"></path><path class="st6" d="M193.4,295.4c0,0,24.7,18.6,63,42.4c0,0-2.3,12.8-7.7,17.6c0,0-41.9-14.7-52.7-33.6"></path><path class="st5" d="M182.2,283.8c0,0-4.5,13.1,3.9,19s19.7-6.5,16.6-18.1S187.5,272.6,182.2,283.8z"></path><path class="st4" d="M203.7,301c-1.4,0.3-2.8-0.1-3.8-1.1c-1.2-1.2-1.1-3-1.1-4.7c0.1-2.2-0.9-4.2-2.7-5.4
		c-2.2-1.5-4.9-1.9-6.9-3.7c-0.2-0.2-0.4-0.4-0.6-0.6c0.3,0.2,0.5,0.5,0.9,0.6c3.2,2,8,2.4,9.5,3.1s-0.9,6.7,1.8,9.4
		s9-13.8,5.4-18.2s-15.8-9.7-21.1-2.3c0.1,0.7,0.3,1.3,0.5,2c0.1,2,0.9,3.9,2.1,5.5c2,2.5,4.8,3,7.4,4.5c1.7,0.8,2.8,2.5,2.9,4.4
		c-0.1,1.5,0.1,3.1,0.5,4.5c1,2.1,3.3,3.2,5.5,2.6C204.5,301.6,204.2,300.9,203.7,301z"></path><path class="st7" d="M271.8,252.3c6.6-35.7,18-70.4,33.9-103.1c0.8-1.7-1.7-3.2-2.6-1.6c-24.4,50.1-38.2,104.8-40.5,160.5
		c-0.4,10.3-0.7,20.7-0.2,31.1c-18.6-54.1-18.1-112.9,1.6-166.6c0.7-1.8-2.2-2.6-2.9-0.8c-19,51.9-20.3,108.5-3.9,161.2
		c-18-24.4-30.2-52.7-35.5-82.6c-6.3-35.8-2.8-72.4,0.7-108.3c0.2-1.9-2.8-1.9-3,0c-3.6,37.1-7.1,74.9,0,111.9
		c6.2,31.7,19.9,61.4,40,86.7c0.1,0.2,0.3,0.3,0.5,0.4c0.5,1.3,0.9,2.6,1.4,3.9c-0.7,0.1-1.2,0.7-1.2,1.4
		c-0.3,28.2,4.7,56.3,14.7,82.7c0.7,1.8,3.6,1,2.9-0.8c-9-23.6-13.9-48.5-14.5-73.8c5.2,28.9,14.1,57.1,26.4,83.9
		c0.8,1.7,3.4,0.2,2.6-1.6c-10.6-23.1-18.7-47.4-24-72.3c0.2-0.3,0.3-0.8,0.2-1.1c-4.1-18.4-3.6-38-2.8-56.8
		C266.4,288.5,268.5,270.3,271.8,252.3z"></path><path class="st7" d="M320.3,201.7c1-1.6-1.6-3.1-2.6-1.6C291,241,265.6,286,265.1,335.8c-0.1,0.2-0.2,0.5-0.2,0.7
		c0,0.7,0.1,1.4,0.2,2.1c0,1.6,0,3,0.1,4.5c-0.9,0.1-1.5,0.8-1.5,1.7c0,0.1,0,0.1,0,0.2c0.9,3.7,1.8,7.5,2.9,11.1
		c5.2,26.6,13.1,52.7,23.5,77.7c0.7,1.8,3.6,1,2.9-0.8c-6.7-16.1-12.3-32.6-16.9-49.4c6.2,15,13.8,29.3,22.7,42.8
		c1,1.6,3.6,0.1,2.6-1.6C288.2,404.8,278,383,271,360c-1.4-7.1-2.3-14.2-2.8-21.4C267.6,288.4,293.4,243,320.3,201.7z"></path><path class="st5" d="M270.4,351.6c0.4-0.6,0.3-1.5-0.4-1.9c-0.2-0.1-0.5-0.2-0.8-0.2c0.3-0.3,0.6-0.6,0.9-0.9
		c0.4-0.5,0.4-1.2-0.1-1.6c-0.1-0.1-0.2-0.1-0.2-0.2c-0.2-0.4-0.5-0.8-0.9-0.9l0.9-0.8l0.2-0.2l0.3-0.2c0.6-0.5,0.6-1.4,0.1-2
		c-0.2-0.3-0.6-0.4-0.9-0.4c0.4-0.3,0.7-0.6,1-1V341c0.6-0.5,0.7-1.4,0.2-2c-0.3-0.4-0.8-0.5-1.3-0.5c-2.2,0.3-4.3,1.1-6,2.5
		c-0.6,0.5-0.6,1.4-0.1,1.9c0,0,0,0,0,0c0.2,0.2,0.4,0.3,0.6,0.4c0.3,0.1,0.6,0.1,1,0.1c-0.9,0.4-1.7,0.8-2.5,1.4
		c-0.6,0.5-0.6,1.4-0.1,1.9c0.6,0.7,1.4,1.2,2.4,1.2c-0.6,0.6-1.1,1.2-1.6,1.9c-0.4,0.6-0.2,1.5,0.4,1.9c0.3,0.2,0.7,0.3,1,0.2
		c0.4-0.1,0.8-0.2,1.2-0.4c-0.6,0.6-1,1.3-1.3,2.1c-0.5,1.4,1.2,2.2,2.2,1.5c1.3-1,2.4-2.1,3.5-3.3l0.1-0.1L270.4,351.6z"></path><path class="st5" d="M263.8,337.5c-1.2-3.2-4.8,0.2-6.8,2.5c-0.1,0.1-0.2,0.1-0.3,0.2c-0.4,0.4-0.8,0.7-1.3,1
		c-1.2,4-2.7,7.8-4.5,11.5c0.9,0.5,1.8,0.9,2.8,1.1c1.4,0.3,2.9,0.2,4.2-0.2c2.9-1.1,2.8-4.1,2.3-6.7v0c0.5-0.9,0.7-2,0.6-3
		c0-0.3-0.1-0.5-0.2-0.8C262.7,341.8,264.8,340,263.8,337.5z"></path><path class="st8" d="M369.4,71.7c-27.9-4.3-49.3,27.1-44.6,53.9c0.7,3.8,6.5,24,12.2,30.9l-0.2,0.2c-3-0.6-5.9,0.9-7.1,3.7
		c-1.6,3.7,1.4,7.4,4.9,8.4c3.5,1.3,7.3-0.5,8.6-4c0.7-2,0.5-4.2-0.7-6c18.4,0.2,37.6-8.7,49.6-22.1C412,114.7,404,77,369.4,71.7z"></path><path class="st9" d="M334,126.1c1.4-11.3,5.6-22.2,12.1-31.6c9.6-13.7,23.9-21,39.6-16.9c-5-3.1-10.5-5.1-16.3-5.9
		c-28-4.3-49.4,27-44.6,53.8c2,8.4,4.8,16.6,8.3,24.4C332,142.1,333,133.6,334,126.1z"></path><path class="st6" d="M281.3,33.3c-28.1,2.6-41.3,38.2-30.2,63.1c1.6,3.6,12.1,21.7,19.3,27.1l-0.2,0.2c-3,0.1-5.5,2.3-6,5.3
		c-0.6,3.9,3.1,6.8,6.7,7c3.7,0.4,7-2.3,7.3-6c0.2-2-0.5-4.1-2-5.5c17.9-4.2,34.3-17.6,42.8-33.5C333.1,64.7,316.2,30.1,281.3,33.3z
		"></path><path class="st3" d="M260.2,94.7c-1.4-11.4,0-22.9,4.1-33.6c6-15.7,18.1-26.2,34.3-26c-5.6-1.8-11.4-2.4-17.3-1.8
		C253.2,36,240,71.6,251.1,96.5c3.9,7.7,8.6,14.9,14,21.7C262.2,110.7,261.1,102.2,260.2,94.7z"></path><path class="st1" d="M305.5,80c-28.2-1.7-46.6,31.5-39.4,57.8c1,3.8,8.6,23.3,15,29.7l-0.2,0.2c-3-0.4-5.8,1.5-6.7,4.3
		c-1.1,3.8,2.1,7.2,5.6,7.9c3.6,0.9,7.2-1.2,8.2-4.8c0.5-2,0.1-4.1-1.2-5.8c18.3-1.4,36.6-12.1,47.4-26.7
		C351.9,118.9,340.5,82.1,305.5,80z"></path><path class="st7" d="M275.3,137.5c0.3-11.4,3.5-22.6,9.1-32.6c8.3-14.5,22-23.2,37.9-20.5c-5.2-2.6-10.9-4.1-16.8-4.4
		c-28.1-1.7-46.6,31.5-39.4,57.8c2.7,8.2,6.3,16,10.5,23.5C274.8,153.6,275,145.1,275.3,137.5z"></path><path class="st10" d="M228.1,66.5c-28.1,2.6-41.3,38.2-30.2,63.1c1.6,3.6,12.1,21.7,19.3,27.1l-0.2,0.2c-3,0.1-5.5,2.3-6,5.3
		c-0.6,3.9,3.1,6.8,6.7,7c3.7,0.4,7-2.3,7.3-6c0.2-2.1-0.5-4.1-2-5.5c17.9-4.2,34.3-17.6,42.8-33.5C279.8,97.9,263,63.3,228.1,66.5z
		"></path><path class="st5" d="M206.9,127.8c-1.4-11.4,0-22.9,4.1-33.6c6-15.7,18.1-26.2,34.3-26c-5.6-1.8-11.4-2.4-17.3-1.8
		c-28.1,2.6-41.3,38.2-30.2,63.1c3.9,7.7,8.6,14.9,14,21.7C208.9,143.9,207.8,135.3,206.9,127.8z"></path><path class="st10" d="M351.4,146.2c-26.7-9-53.2,18.3-53.1,45.5c0,3.9,2.3,24.7,6.7,32.6l-0.3,0.2c-2.8-1.1-6-0.1-7.6,2.4
		c-2.1,3.4,0.1,7.5,3.3,9.1c3.2,1.8,7.3,0.7,9.1-2.6c1-1.8,1.1-3.9,0.4-5.8c18,3.4,38.5-2.2,52.7-13.3
		C386.1,195.8,384.6,157.3,351.4,146.2z"></path><path class="st5" d="M307.2,193.8c3.3-11,9.2-20.9,17.3-29.1c11.8-11.9,27.2-16.6,41.9-9.9c-4.4-3.9-9.5-6.8-15.1-8.6
		c-26.7-9-53.2,18.3-53.1,45.5c0.5,8.6,1.8,17.2,4,25.5C302.6,209.2,305,201,307.2,193.8z"></path><path class="st8" d="M262.6,129.7c-28.1,2.6-41.3,38.2-30.2,63.1c1.6,3.6,12.1,21.7,19.3,27.1l-0.2,0.2c-3,0.1-5.5,2.3-6,5.3
		c-0.6,3.9,3.1,6.8,6.7,7c3.7,0.4,7-2.3,7.3-6c0.2-2.1-0.5-4.1-2-5.5c17.9-4.2,34.3-17.6,42.8-33.5
		C314.4,161.1,297.5,126.5,262.6,129.7z"></path><path class="st9" d="M241.5,191.1c-1.4-11.4,0-22.9,4.1-33.6c6-15.7,18.1-26.2,34.3-26c-5.6-1.8-11.4-2.4-17.3-1.8
		c-28.1,2.6-41.3,38.2-30.2,63.1c3.9,7.7,8.6,14.9,14,21.7C243.4,207.1,242.3,198.6,241.5,191.1z"></path></g><g id="Cloud"><path class="st1" d="M146.6,193.4c-0.9-1.1-12.6-8.1-12.6-8.1l0,0c-2.4-2.7-6.9-1.8-12.7,3.3c0,0-0.2-5.6-6.9-6.5s-8.6,2.1-8.6,2.1
		s-2.2-10.6-15.7-6.6c-12.1,3.6-10.4,15.8-10.4,15.8s-7.6-1.9-13.6,6.4c-3.7,5.3-5.6,11.7-5.5,18.1c0,0-12.7,4.6-14.3,16.1
		c-0.1,1-0.2,2-0.2,3v0.3c0,2.5,0.2,5,0.7,7.4c0.2,1.4,1.1,2.6,2.3,3.4l13.5,7.7c0.4-3.3-0.1-6.7-1.4-9.9l66.7-38.6
		c3.1-2.9,5.6-6.5,7.2-10.4l5.1-1.3C140.1,195.7,147.5,194.5,146.6,193.4z"></path><path class="st11" d="M146.6,193.4c-0.9-1.1-12.6-8.1-12.6-8.1l0,0c-2.4-2.7-6.9-1.8-12.7,3.3c0,0-0.2-5.6-6.9-6.5
		s-8.6,2.1-8.6,2.1s-2.2-10.6-15.7-6.6c-12.1,3.6-10.4,15.8-10.4,15.8s-7.6-1.9-13.6,6.4c-3.7,5.3-5.6,11.7-5.5,18.1
		c0,0-12.7,4.6-14.3,16.1c-0.1,1-0.2,2-0.2,3v0.3c0,2.5,0.2,5,0.7,7.4c0.2,1.4,1.1,2.6,2.3,3.4l13.5,7.7c0.4-3.3-0.1-6.7-1.4-9.9
		l66.7-38.6c3.1-2.9,5.6-6.5,7.2-10.4l5.1-1.3C140.1,195.7,147.5,194.5,146.6,193.4z"></path><path class="st1" d="M69.8,256.9l70.9-41.1c0,0,8.7-7.6,8.1-16.2s-6.2-9.9-14.7-2.5c0,0-0.2-7.2-6.9-6.5c-3.7,0.2-7.1,2.1-9.2,5.1
		c0,0,1.3-12.7-12-8.8c-7,2-12.2,7.8-13.3,15c0,0-7.6-1.9-13.6,6.4c-3.7,5.3-5.6,11.6-5.6,18c0,0-12.7,4.6-14.3,16.1
		S63.1,259.3,69.8,256.9z"></path><path class="st1" d="M97.6,325c-0.5-0.7-7.8-5-7.8-5l0,0c-1.6-1.7-4.3-1.1-8,2.1c-0.2-2.2-2.1-4-4.3-4c-4.2-0.6-5.4,1.3-5.4,1.3
		s-1.4-6.6-9.8-4.1c-4.4,1.2-7.2,5.5-6.6,10c0,0-4.7-1.2-8.5,4c-2.3,3.3-3.5,7.3-3.5,11.3c0,0-7.9,2.9-9,10.1
		c-0.1,0.6-0.1,1.3-0.2,1.9v0.2c0,1.6,0.1,3.2,0.4,4.7c0.2,0.9,0.7,1.7,1.5,2.1l8.4,4.7c0.3-2.1,0-4.2-0.8-6.2l41.7-24.2
		c2-1.8,3.5-4,4.5-6.5l3.1-0.8C93.4,326.4,98.1,325.7,97.6,325z"></path><path class="st2" d="M97.6,325c-0.5-0.7-7.8-5-7.8-5l0,0c-1.6-1.7-4.3-1.1-8,2.1c-0.2-2.2-2.1-4-4.3-4c-4.2-0.6-5.4,1.3-5.4,1.3
		s-1.4-6.6-9.8-4.1c-4.4,1.2-7.2,5.5-6.6,10c0,0-4.7-1.2-8.5,4c-2.3,3.3-3.5,7.3-3.5,11.3c0,0-7.9,2.9-9,10.1
		c-0.1,0.6-0.1,1.3-0.2,1.9v0.2c0,1.6,0.1,3.2,0.4,4.7c0.2,0.9,0.7,1.7,1.5,2.1l8.4,4.7c0.3-2.1,0-4.2-0.8-6.2l41.7-24.2
		c2-1.8,3.5-4,4.5-6.5l3.1-0.8C93.4,326.4,98.1,325.7,97.6,325z"></path><path class="st1" d="M49.6,364.7L93.9,339c0,0,5.4-4.7,5.1-10.1s-3.9-6.3-9.2-1.6c0,0-0.1-4.5-4.3-4c-2.3,0.1-4.4,1.3-5.8,3.1
		c0,0,0.8-8-7.5-5.5c-4.4,1.2-7.7,4.9-8.4,9.4c0,0-4.7-1.2-8.5,4c-2.3,3.3-3.5,7.2-3.5,11.2c0,0-7.9,2.9-9,10.1
		S45.3,366.2,49.6,364.7z"></path><path class="st1" d="M465.4,269.9c-1.1-1.4-16.8-10.8-16.8-10.8v0.1c-3.2-3.6-9.2-2.3-17,4.4c0,0-0.3-7.4-9.2-8.6
		s-11.4,2.8-11.4,2.8s-3-14.1-20.8-8.8c-16.2,4.8-13.9,21.1-13.9,21.1s-10.1-2.5-18.1,8.5c-4.9,7.1-7.5,15.5-7.4,24.1
		c0,0-16.9,6.1-19.1,21.5c-0.2,1.3-0.3,2.7-0.3,4v0.4c-0.1,3.3,0.2,6.6,0.9,9.9c0.3,1.9,1.5,3.5,3.1,4.5l18,10.2
		c0.6-4.5-0.1-9-1.8-13.1l88.9-51.6c4.2-3.9,7.5-8.6,9.7-13.9l6.8-1.8C456.8,272.9,466.5,271.3,465.4,269.9z"></path><path class="st2" d="M465.4,269.9c-1.1-1.4-16.8-10.8-16.8-10.8v0.1c-3.2-3.6-9.2-2.3-17,4.4c0,0-0.3-7.4-9.2-8.6
		s-11.4,2.8-11.4,2.8s-3-14.1-20.8-8.8c-16.2,4.8-13.9,21.1-13.9,21.1s-10.1-2.5-18.1,8.5c-4.9,7.1-7.5,15.5-7.4,24.1
		c0,0-16.9,6.1-19.1,21.5c-0.2,1.3-0.3,2.7-0.3,4v0.4c-0.1,3.3,0.2,6.6,0.9,9.9c0.3,1.9,1.5,3.5,3.1,4.5l18,10.2
		c0.6-4.5-0.1-9-1.8-13.1l88.9-51.6c4.2-3.9,7.5-8.6,9.7-13.9l6.8-1.8C456.8,272.9,466.5,271.3,465.4,269.9z"></path><path class="st1" d="M363,354.5l94.5-54.9c0,0,11.6-10.2,10.9-21.6s-8.2-13.2-19.6-3.4c0,0-0.2-9.5-9.2-8.6s-12.3,6.8-12.3,6.8
		s1.8-17-16.1-11.7c-9.4,2.6-16.3,10.5-17.8,20.1c0,0-10.1-2.5-18.1,8.6c-4.9,7.1-7.5,15.5-7.4,24c0,0-16.9,6.1-19.1,21.5
		S354,357.7,363,354.5z"></path></g></svg>