<svg transform="scale(2)" version="1.1" id="Layer_1" xmlns="http://www.w3.org/2000/svg" xmlns:xlink="http://www.w3.org/1999/xlink" x="0px" y="0px" viewBox="0 0 500 500" xml:space="preserve" class="show_show__wrapper__graphic__5Waiy "><title>React</title><style type="text/css">
	.st0{fill:#6E89FE;}
	.st1{opacity:0.36;fill:url(#SVGID_1_);enable-background:new    ;}
	.st2{opacity:0.36;fill:url(#SVGID_00000181798976213080607530000006792066670222552767_);enable-background:new    ;}
	.st3{opacity:0.36;fill:url(#SVGID_00000003069011594643370690000011278375232788716474_);enable-background:new    ;}
	.st4{opacity:0.36;fill:url(#SVGID_00000183250998933406841880000016106569844434324665_);enable-background:new    ;}
	.st5{opacity:0.36;fill:url(#SVGID_00000009569369695500010370000005309413055322560134_);enable-background:new    ;}
	.st6{fill:#68E1FD;}
	.st7{fill:#3129A3;}
	.st8{opacity:0.49;fill:#FFFFFF;enable-background:new    ;}
	.st9{fill:#F78B72;}
	.st10{fill:#FFB5A4;}
	.st11{fill:#A3E271;}
	.st12{fill:#BFEA98;}
	.st13{fill:#FFC36C;}
	.st14{fill:#FFDD99;}
</style><path class="st0" id="Base" d="M66.9,368.3l174.9,101.8c8,4.6,18,4.6,26,0L463,357.8c5-2.9,6.7-9.2,3.8-14.2
	c-0.9-1.6-2.2-2.9-3.8-3.8L282.8,236c-5.2-3-11.6-3-16.8,0L66.9,350.3c-5,2.9-6.7,9.2-3.8,14.2C64,366.1,65.3,367.4,66.9,368.3
	L66.9,368.3z"></path><g id="Shadow"><linearGradient id="SVGID_1_" gradientUnits="userSpaceOnUse" x1="261.3075" y1="-3530.613" x2="313.8975" y2="-3574.1531" gradientTransform="matrix(1 0 0 1 0 3908.1499)"><stop offset="6.000000e-02" style="stop-color: rgb(255, 255, 255); stop-opacity: 0;"></stop><stop offset="7.000000e-02" style="stop-color: rgb(249, 249, 252); stop-opacity: 0.03;"></stop><stop offset="0.2" style="stop-color: rgb(189, 186, 225); stop-opacity: 0.32;"></stop><stop offset="0.34" style="stop-color: rgb(138, 134, 203); stop-opacity: 0.57;"></stop><stop offset="0.47" style="stop-color: rgb(99, 93, 185); stop-opacity: 0.76;"></stop><stop offset="0.6" style="stop-color: rgb(71, 64, 173); stop-opacity: 0.89;"></stop><stop offset="0.72" style="stop-color: rgb(55, 47, 166); stop-opacity: 0.97;"></stop><stop offset="0.83" style="stop-color: rgb(49, 41, 163);"></stop></linearGradient><polygon class="st1" points="269.3,344.7 236.5,363.7 278.2,388 312.6,369.5 	"></polygon><linearGradient id="SVGID_00000152253554487497560260000014539063786225109640_" gradientUnits="userSpaceOnUse" x1="177.2102" y1="-3569.2698" x2="219.8602" y2="-3602.1599" gradientTransform="matrix(1 0 0 1 0 3908.1499)"><stop offset="6.000000e-02" style="stop-color: rgb(255, 255, 255); stop-opacity: 0;"></stop><stop offset="7.000000e-02" style="stop-color: rgb(249, 249, 252); stop-opacity: 0.03;"></stop><stop offset="0.2" style="stop-color: rgb(189, 186, 225); stop-opacity: 0.32;"></stop><stop offset="0.34" style="stop-color: rgb(138, 134, 203); stop-opacity: 0.57;"></stop><stop offset="0.47" style="stop-color: rgb(99, 93, 185); stop-opacity: 0.76;"></stop><stop offset="0.6" style="stop-color: rgb(71, 64, 173); stop-opacity: 0.89;"></stop><stop offset="0.72" style="stop-color: rgb(55, 47, 166); stop-opacity: 0.97;"></stop><stop offset="0.83" style="stop-color: rgb(49, 41, 163);"></stop></linearGradient><polygon points="
		188,304.6 155.2,323.6 196.9,347.9 231.3,329.4 	" style="opacity: 0.36; fill: url(&quot;#SVGID_00000152253554487497560260000014539063786225109640_&quot;);"></polygon><linearGradient id="SVGID_00000142145671830324296170000003914577220284060303_" gradientUnits="userSpaceOnUse" x1="89.3174" y1="-3507.4746" x2="175.2774" y2="-3558.3745" gradientTransform="matrix(1 0 0 1 0 3908.1499)"><stop offset="6.000000e-02" style="stop-color: rgb(255, 255, 255); stop-opacity: 0;"></stop><stop offset="7.000000e-02" style="stop-color: rgb(249, 249, 252); stop-opacity: 0.03;"></stop><stop offset="0.2" style="stop-color: rgb(189, 186, 225); stop-opacity: 0.32;"></stop><stop offset="0.34" style="stop-color: rgb(138, 134, 203); stop-opacity: 0.57;"></stop><stop offset="0.47" style="stop-color: rgb(99, 93, 185); stop-opacity: 0.76;"></stop><stop offset="0.6" style="stop-color: rgb(71, 64, 173); stop-opacity: 0.89;"></stop><stop offset="0.72" style="stop-color: rgb(55, 47, 166); stop-opacity: 0.97;"></stop><stop offset="0.83" style="stop-color: rgb(49, 41, 163);"></stop></linearGradient><polygon points="
		116.9,359.4 84.1,378.3 125.8,402.6 160.2,384.1 	" style="opacity: 0.36; fill: url(&quot;#SVGID_00000142145671830324296170000003914577220284060303_&quot;);"></polygon><linearGradient id="SVGID_00000070827177663005676920000006215665000051359874_" gradientUnits="userSpaceOnUse" x1="171.0199" y1="-3463.4302" x2="237.7499" y2="-3519.9702" gradientTransform="matrix(1 0 0 1 0 3908.1499)"><stop offset="6.000000e-02" style="stop-color: rgb(255, 255, 255); stop-opacity: 0;"></stop><stop offset="7.000000e-02" style="stop-color: rgb(249, 249, 252); stop-opacity: 0.03;"></stop><stop offset="0.2" style="stop-color: rgb(189, 186, 225); stop-opacity: 0.32;"></stop><stop offset="0.34" style="stop-color: rgb(138, 134, 203); stop-opacity: 0.57;"></stop><stop offset="0.47" style="stop-color: rgb(99, 93, 185); stop-opacity: 0.76;"></stop><stop offset="0.6" style="stop-color: rgb(71, 64, 173); stop-opacity: 0.89;"></stop><stop offset="0.72" style="stop-color: rgb(55, 47, 166); stop-opacity: 0.97;"></stop><stop offset="0.83" style="stop-color: rgb(49, 41, 163);"></stop></linearGradient><polygon points="
		193,399.7 160.2,418.8 201.9,443 236.3,424.5 	" style="opacity: 0.36; fill: url(&quot;#SVGID_00000070827177663005676920000006215665000051359874_&quot;);"></polygon><linearGradient id="SVGID_00000052793090180918543640000006055371602268643482_" gradientUnits="userSpaceOnUse" x1="386.421" y1="-3532.949" x2="444.541" y2="-3577.8088" gradientTransform="matrix(1 0 0 1 0 3908.1499)"><stop offset="6.000000e-02" style="stop-color: rgb(255, 255, 255); stop-opacity: 0;"></stop><stop offset="7.000000e-02" style="stop-color: rgb(249, 249, 252); stop-opacity: 0.03;"></stop><stop offset="0.2" style="stop-color: rgb(189, 186, 225); stop-opacity: 0.32;"></stop><stop offset="0.34" style="stop-color: rgb(138, 134, 203); stop-opacity: 0.57;"></stop><stop offset="0.47" style="stop-color: rgb(99, 93, 185); stop-opacity: 0.76;"></stop><stop offset="0.6" style="stop-color: rgb(71, 64, 173); stop-opacity: 0.89;"></stop><stop offset="0.72" style="stop-color: rgb(55, 47, 166); stop-opacity: 0.97;"></stop><stop offset="0.83" style="stop-color: rgb(49, 41, 163);"></stop></linearGradient><polygon points="
		409.2,337.7 365.6,366.3 389.2,385.1 450.9,350.4 	" style="opacity: 0.36; fill: url(&quot;#SVGID_00000052793090180918543640000006055371602268643482_&quot;);"></polygon></g><g id="Screen"><path class="st6" d="M225,59.5v97.9c0,3.1-1.7,6-4.4,7.5L61.3,255c-4.2,2.4-9.5,0.9-11.9-3.3c-0.7-1.3-1.1-2.8-1.1-4.3v-92.8
		c0-3.1,1.6-5.9,4.2-7.5L211.8,52c4.1-2.5,9.5-1.2,12,3c0,0,0,0,0,0C224.6,56.4,225,57.9,225,59.5z"></path><path class="st0" d="M102,190.8c0-1.6,0.2-3.3,0.3-4.9c0.1-0.8,0.2-1.6,0.2-2.4c0-0.4,0.1-0.8,0.2-1.2c0.1-0.9-0.1,1,0,0.3l0.1-0.9
		c0.3-2,0.7-4,1.1-6c0.5-2.2,1.1-4.3,1.8-6.4c0.2-0.5,0.3-1,0.5-1.5l0.3-0.8c0.1-0.3,0.3-0.6-0.2,0.4c0-0.2,0.1-0.3,0.2-0.5
		c0.4-0.9,0.9-1.9,1.4-2.8c0.5-0.9,1.1-1.8,1.7-2.6c0.6-0.8-0.5,0.6,0,0.1l0.5-0.6c0.3-0.4,0.7-0.7,1-1.1s0.7-0.6,1.1-1
		s-0.9,0.6-0.2,0.1l0.7-0.4c0.4-0.3,0.8-0.5,1.3-0.7c0.2-0.1,0.9-0.4,0.2-0.1s0.2,0,0.3-0.1c0.5-0.1,0.9-0.3,1.4-0.4l1.1-0.2
		c0.2,0,0.8-0.1,0.1,0s0.1,0,0.2,0c0.7,0,1.3,0,1.9,0h1c0.4,0,1.6,0.3,0.2,0c1.2,0.2,2.4,0.5,3.6,0.9l0.8,0.3c0.1,0,1.2,0.5,0.4,0.2
		s0.1,0,0.3,0.1l0.9,0.4c4.4,2.2,8.4,5.2,13.1,6.8c5.5,1.8,11.5,1,16.3-2c4.5-2.9,8.2-7.1,10.6-11.9c3.6-7.1,5.8-14.7,6.6-22.6V129
		c0-2.3-1.9-4.2-4.2-4.2c-2.2,0-4.1,1.8-4.2,4v0.9c0,0.2,0.2-1.4,0.1-0.8v0.4c-0.2,1.4-0.5,2.9-0.8,4.3c-0.4,2-0.9,4-1.6,5.9
		c-0.3,1-0.7,2.1-1,3.1c-0.2,0.5-0.4,1-0.6,1.6l-0.3,0.8c0.5-1.3,0-0.1,0,0.1c-1,2.2-2.2,4.4-3.6,6.4l-0.6,0.7
		c-0.4,0.6,0.2-0.3,0.2-0.3l-0.2,0.3c-0.4,0.5-0.8,1-1.2,1.4c-0.4,0.4-0.8,0.8-1.2,1.2l-0.7,0.6c-0.1,0.1-0.2,0.2-0.4,0.3
		c0.1-0.1,0.8-0.6,0.3-0.2c-1,0.7-2,1.4-3.1,1.9c-0.9,0.4,0.5-0.2-0.2,0l-1,0.4c-0.6,0.2-1.3,0.4-1.9,0.5l-0.5,0.1
		c0,0,1.1-0.1,0.4,0H146c-0.6,0-1.2,0-1.7,0h-0.4c0,0,1.1,0.2,0.5,0l-0.8-0.1c-0.5-0.1-1.1-0.3-1.6-0.4l-1.5-0.5
		c-0.5-0.2,0.9,0.4,0.4,0.2l-0.4-0.2l-0.9-0.4c-1-0.5-2-1.1-3-1.7c-2-1.2-4-2.4-6.1-3.4c-5.3-2.9-11.5-3.7-17.4-2.4
		c-9.6,2.4-14.3,12.5-16.6,21.2c-1.1,4.2-1.9,8.5-2.3,12.8c-0.3,2.3-0.5,4.6-0.5,6.9v0.3c0.1,2.3,2.1,4.1,4.4,4c2.2-0.1,3.9-1.8,4-4
		L102,190.8z"></path><path class="st0" d="M156.2,128.7l23.5,5.1c1.4,0.2,2.7-0.7,2.9-2.1c0.1-0.4,0-0.9-0.1-1.3l-7.5-19.3c-0.5-1.3-1.9-2-3.2-1.5
		c0,0,0,0,0,0c-0.3,0.1-0.5,0.3-0.8,0.5l-16,14.2c-1,0.9-1.1,2.5-0.2,3.6C155.2,128.3,155.7,128.6,156.2,128.7L156.2,128.7z"></path><path class="st7" d="M157.1,151.5c-3.5,5-10,9.7-20.4,3.7c0,0,10,9.3,19.1,8.6c0,0,6.3-3.4,11.1-13.1
		C163.7,151.4,160.4,151.7,157.1,151.5z"></path><path class="st7" d="M104.7,170.2c-3.5,1.7-6.7,4-9.4,6.7c-0.4,2.3-0.7,4.6-1,6.9s-0.5,4.6-0.5,6.9v0.4c0.1,2.3,2.1,4.1,4.4,4
		c2.2-0.1,3.9-1.8,4-4c0-1.6,0.2-3.3,0.3-4.9c0.1-0.8,0.2-1.6,0.2-2.4c0-0.4,0.1-0.7,0.1-1.1l0.1-0.7c0.3-2,0.7-4,1.1-6
		c0.5-2.1,1-4.1,1.7-6.1L104.7,170.2z"></path></g><g id="Bar_Chart"><polygon class="st6" points="243.4,160.4 193.2,189 193.2,308.1 236.5,332.9 285.4,304 285.4,184.9 	"></polygon><polygon class="st8" points="193.2,189 243.4,160.4 285.4,184.9 236.5,213.8 	"></polygon><polyline class="st9" points="116.9,208.9 116.9,359.4 160.2,384.1 209.1,355.2 209.1,204.8 	"></polyline><polygon class="st10" points="116.9,208.9 167.2,180.3 209.1,204.8 160.2,233.7 	"></polygon><polygon class="st9" points="160.2,233.7 160.2,384.1 209.1,355.2 209.1,204.8 	"></polygon><polyline class="st11" points="268,266.9 268,344.2 311.4,369 360.2,340.1 360.2,262.8 	"></polyline><polygon class="st12" points="268,266.9 318.3,238.3 360.2,262.8 311.4,291.7 	"></polygon><polygon class="st11" points="311.4,291.7 311.4,369 360.2,340.1 360.2,262.8 	"></polygon><polygon class="st13" points="236.5,370 236.5,425.5 285.4,396.6 285.4,341.1 	"></polygon><polyline class="st13" points="193.2,345.2 193.2,400.7 236.5,425.5 285.4,396.6 285.4,341.1 	"></polyline><polygon class="st14" points="193.2,345.2 243.4,316.6 285.4,341.1 236.5,370 	"></polygon></g><g id="Character"><path class="st7" d="M340.9,349.2c-1-1.9-2.4-3.6-3.9-5c-1.6-1.5-2.7-3.4-3.1-5.5c0.1-4.9,0.6-9.8,1.4-14.7
		c-3.4-0.7-8.6-2.2-10.3-5.3c-1.4,6.5-4.3,21.4-3.8,22.2c1,1.1,2.1,2,3.4,2.6l0.9-8.1l0.2,7.9c0.2,0.7,0.5,1.3,1,1.8
		c0.8,0.7,1.7,1.4,2.7,1.8c1.8,1.2,3.7,2.1,5.8,2.8c1.4,0.4,4.9,1.3,5.8-0.5L340.9,349.2z"></path><path class="st7" d="M354.1,340.9c-1-1.9-2.3-3.6-3.9-5c-1.6-1.5-2.7-3.4-3.1-5.5c0.1-4.9,0.6-9.8,1.4-14.7
		c-3.4-0.7-8.6-2.2-10.3-5.3c-1.4,6.5-4.3,21.4-3.8,22.2c1,1.1,2.1,2,3.4,2.6l0.9-8.1l0.2,7.9c0.2,0.7,0.5,1.3,1,1.8
		c0.8,0.7,1.7,1.4,2.7,1.8c1.8,1.2,3.7,2.1,5.8,2.8c1.4,0.4,4.9,1.3,5.8-0.5L354.1,340.9z"></path><path class="st14" d="M333.7,228.3c0,0,10.7,16.6,13.3,18.7c0,0-8.5,2.6-8.8,9c0,0-9.7-6-11.8-9.2S333.7,228.3,333.7,228.3z"></path><path class="st9" d="M329.8,246.5c0,0,24.1,13.1,26.3,25.3s-2.7,45.9-6.2,47.6c0,0-12-0.7-14.7-11c0,0,2-15.1,4.4-25.2
		c0,0-13.3-2.5-20.4-11c-4.3-5-2.9-25.2,0.5-27S330.4,234.3,329.8,246.5z"></path><path class="st9" d="M324.9,250.9c0,0,16.8,10.1,19,22.4s-4.9,53.8-8.4,55.5c0,0-10.6,2.2-13.3-8c0,0,1.6-27.3,4.1-37.4
		c-6.5-3.8-12.3-8.5-17.3-14.1c-4.3-5-1.7-19.4,1.7-21.2S325.4,238.6,324.9,250.9z"></path><path class="st14" d="M307.2,253.8c0,0-1.2-21.5,4.6-28.9s17.5-10.4,20.5-8.7s3.1,36.6-1.8,37.6
		C322.8,255.5,314.9,255.5,307.2,253.8z"></path><path class="st14" d="M318.4,228.2c-0.1,0.5-2.4,11.1,4.3,16.9c3.3,3,6.9,5.7,10.7,8.1c0,0-8.4,9.4-8.2,12.1
		c0,0-26.3-8.6-18.7-37.3"></path><path class="st10" d="M330.1,206.8c0,0,1.4,13.4-4.7,15.7c-4.4,1.6-7-4.2-7.4-7.6c-0.3-4.2,1.6-8.2,5-10.5
		C326,202.1,329.7,202.7,330.1,206.8z"></path><path class="st7" d="M320.4,210.4c0,0,1.2-0.5,1.7,0s-0.5,2.6,1.1,2.7s6.1,0.3,8.9-2.7s-0.1-10.6-5.9-11.4s-14.2,4.1-15.7,12.1
		s-1.3,8.4-3.9,10.7s-5.8,2.3-4.2,6.7s6.8,2.8,6.7,6.6s5,8.1,10.6,5.2c3.5-1.5,5.1-5.6,3.5-9c-0.5-1.1-1.2-2-2.2-2.7
		C317.8,225.6,317.1,213.4,320.4,210.4z"></path><polyline class="st7" points="335,271.6 321.5,263.7 345.5,248 358.2,253.1 	"></polyline><path class="st6" d="M334.9,270.2c-0.2-1,6.5-20,6.5-20l27.7-15.7l-8.5,21.6l-25.8,15.3V270.2z"></path><ellipse class="st7" transform="matrix(0.4286 -0.9035 0.9035 0.4286 -29.8172 464.133)" cx="352" cy="255.6" rx="3.3" ry="1.7"></ellipse></g><g id="Pencil_Case"><path class="st6" d="M409.4,301.3v45.3c0,0,43.5,2.4,43.5,0v-45.3"></path><ellipse class="st6" cx="431.1" cy="346.2" rx="21.8" ry="9.9"></ellipse><ellipse class="st7" cx="431.1" cy="301.4" rx="21.8" ry="9.9"></ellipse><path class="st9" d="M417.6,309.1l0.2,0.1c0.8,0.3,1.7,0.5,2.5,0.8l-5.9-49.6c-1-0.4-2.2-0.2-3,0.6l6.1,48.1L417.6,309.1z"></path><path class="st9" d="M424.3,310.6l1.9-46.5c-1-0.6-2.2-0.6-3.1,0l-1.6,46C422.4,310.3,423.3,310.5,424.3,310.6z"></path><path class="st13" d="M431.1,311.3l6-48.5l12.1,6.4l-4.9,40.8C440.1,311.2,435.6,311.7,431.1,311.3z"></path></g></svg>