<svg transform="scale(2)" version="1.1" id="Layer_1" xmlns="http://www.w3.org/2000/svg" xmlns:xlink="http://www.w3.org/1999/xlink" x="0px" y="0px" viewBox="0 0 500 500" xml:space="preserve" class="show_show__wrapper__graphic__5Waiy "><title>React</title><style type="text/css">
	.st0{fill:#3AC158;}
	.st1{opacity:0.63;fill:url(#SVGID_1_);enable-background:new    ;}
	.st2{opacity:0.63;fill:url(#SVGID_00000075127744407037853200000011051752046125693870_);enable-background:new    ;}
	.st3{fill:#5DD874;}
	.st4{opacity:0.63;fill:url(#SVGID_00000034794401219776590540000012015349760084157064_);enable-background:new    ;}
	.st5{fill:#FFFFFF;}
	.st6{fill:#A03E24;}
	.st7{fill:#FFC2A4;}
	.st8{fill:#3B2B52;}
	.st9{opacity:0.5;fill:#0E0D0B;enable-background:new    ;}
	.st10{fill:#68E1FD;}
	.st11{fill:#E89263;}
	.st12{opacity:0.3;fill:#0E0D0B;enable-background:new    ;}
	.st13{fill:#0E0D0B;}
	.st14{fill:#FB9328;}
	.st15{opacity:0.2;fill:#0E0D0B;enable-background:new    ;}
</style><g id="background"><path class="st0" d="M241.6,423.5L10,286.6c-7.4-4.1-13.7-10.9-6.5-15.4l232.5-134c3.5-2.2,8.8-3.6,12.3-1.5l243.1,141.1
		c7.4,4.3,8.7,16.2,1.3,20.5L272.2,423.3C262.8,428.8,251.1,428.8,241.6,423.5z"></path><linearGradient id="SVGID_1_" gradientUnits="userSpaceOnUse" x1="265.1349" y1="297.2538" x2="194.1849" y2="201.8038" gradientTransform="matrix(1 0 0 -1 0 502)"><stop offset="0" style="stop-color: rgb(14, 13, 11);"></stop><stop offset="1" style="stop-color: rgb(14, 13, 11); stop-opacity: 0;"></stop></linearGradient><path class="st1" d="M238.4,250.3l-48.7,25.4l20.8,14.4l30.4-22.3C236.8,265.2,242.5,252.9,238.4,250.3z"></path><linearGradient id="SVGID_00000168808490753809953620000017394607738021293975_" gradientUnits="userSpaceOnUse" x1="225.1391" y1="320.7078" x2="111.9491" y2="143.3278" gradientTransform="matrix(1 0 0 -1 0 502)"><stop offset="0" style="stop-color: rgb(14, 13, 11);"></stop><stop offset="1" style="stop-color: rgb(14, 13, 11); stop-opacity: 0;"></stop></linearGradient><path d="
		M148.9,312.3l-48.7,25.4l20.9,14.4l33.7-21.1C150.6,328.5,153,314.9,148.9,312.3z" style="opacity: 0.63; fill: url(&quot;#SVGID_00000168808490753809953620000017394607738021293975_&quot;);"></path><polygon class="st3" points="150.1,368.6 397.8,222.5 451.6,253.7 203.7,400.3 	"></polygon><linearGradient id="SVGID_00000178917439377916450910000004653657597737073812_" gradientUnits="userSpaceOnUse" x1="335.6789" y1="243.1406" x2="283.8689" y2="144.5906" gradientTransform="matrix(1 0 0 -1 0 502)"><stop offset="0" style="stop-color: rgb(14, 13, 11);"></stop><stop offset="1" style="stop-color: rgb(14, 13, 11); stop-opacity: 0;"></stop></linearGradient><path d="
		M321.4,307.8l-53.8,26.6l20.8,14.4l43.2-28.4C327.6,317.8,325.5,310.4,321.4,307.8z" style="opacity: 0.63; fill: url(&quot;#SVGID_00000178917439377916450910000004653657597737073812_&quot;);"></path><polygon class="st3" points="34.8,301.3 282.2,155.4 336.4,186.4 88.5,333 	"></polygon><ellipse class="st0" cx="247.4" cy="340.1" rx="31.9" ry="7.8"></ellipse></g><g id="character_3"><polyline class="st5" points="283.4,206 283.9,208.3 288.6,207.9 291.5,203.5 291.1,201.4 289.9,200.4 286.1,199.6 	"></polyline><path class="st6" d="M279.2,224.9c1.3,0.6,2.7,0.9,4.1,0.8c1.9-0.3,5.9-2.7,6.8-4.9s3.2-7.5,3.6-8.4s4.2-4.6,4.6-6.3
		s0.1-2.8-2.2-3.8"></path><path class="st7" d="M256.4,198.1c0,0,24.5,7.7,27,7.9s3.7-5.7,3.7-5.7s-8.8-7.1-15.1-9.1s-9.6-3.1-9.6-3.1"></path><path class="st8" d="M283.6,207.6c0,0,2.3,1.2,4.2,0s1.2-7,2.1-7.2s5.2,1.2,6.3,1.9c0.8,0.5,1.3,1.5,1.1,2.5
		c-0.1,0.7-4.6,5.4-4.9,7s-3.3,9.4-5.6,11.1s-7.2,3.2-8.5,1.3c-1.4-1.9-1.2-4.5,0.4-6.2C280.1,216.2,283.1,210.8,283.6,207.6z"></path><path class="st5" d="M239.4,248.3c0,0,0.3-4.7,0.9-5c2.8-0.2,5.6-0.2,8.4,0c0.4,0.2,0.2,3.3,0.2,3.3s-2.9,3.4-4.7,3.4
		S239.4,248.3,239.4,248.3z"></path><path class="st8" d="M239.8,161.6c0,0,2.6,26.3,10.5,29.4s7.9-25.1,7.9-25.1l-9.2-8.1"></path><path class="st9" d="M239.8,161.6c0,0,2.6,26.3,10.5,29.4s7.9-25.1,7.9-25.1l-9.2-8.1"></path><path class="st7" d="M252.2,210.4c0.7-2.3,13.6-21.1,13.6-21.1l-21.3,1.3c0,0-3.3,14.8-3.5,21.5c-0.1,5.9,0,27.3,0,32.3l0,0
		c2.2,0.4,5.3,1.1,7.4-0.2c2-4.6,4.7-17.8,4.7-21.2C253.1,219.1,251.6,212.7,252.2,210.4z"></path><path class="st6" d="M228.5,263.7l-0.1,4.5c0.9,1.3,2.4,2,3.9,2c2.7,0,7.3-1,8.5-2.4s3.6-6.1,4.9-7.2s3.7-3.3,3.7-3.8
		s-0.4-3.9-0.4-3.9"></path><path class="st8" d="M239.4,248.3c0,0-1.8,5.1-3.8,6.8c-2,1.7-7.7,7-7.1,9.5s2,3.8,5.2,3.1s6.4-1.2,8.4-5.4s5.9-6.4,6.7-7.6
		s0-8.7,0-8.7s-2.8,2.5-4.4,2.6C242.7,248.6,241,248.5,239.4,248.3z"></path><path class="st8" d="M253,163.5c0,0-9.7,27-8.6,28.6s12.5,6.1,17.4,4.3s10.7-19,10.2-22.7s-2.7-12.5-2.7-12.5L253,163.5z"></path><path class="st7" d="M248.5,108.7c-2.5,0.1-5,0.4-7.4,0.8c-3.3,0.7-5.7-0.7-8.7,3.9s-11.3,22.7-9.1,26.6s7.9,8.7,7.9,8.7
		s2.1,5.5,4.8,6.9s6.7-3.2,6.8-4.6s-2.3-3.3-2.3-3.3s1.5,0.7,1.3-0.5s-5.2-3.4-5.2-3.4l-5-9.4l7.2-10.5l18,7.7c0,0,8.8,8.6,11.8,7.5
		s3.6-2.7,3.6-2.7l1.7-3.6c0,0,7.6,8.9,7.4,10.9s-4.8,18.1-6.7,19.1s-4.1,1.4-5.5,2.8s-4.1,2.7-3.1,4.5s1.6,3.8,3,4s3.9,2,5.2,0.7
		s4.7-8.6,4.7-8.6s10.5-14.4,11.2-21s-4.8-21.1-11.2-25.3c-4.9-3.3-10.3-5.8-16-7.5c-4.1-1.2-8.4-6.3-8.4-6.3"></path><path class="st10" d="M272,135.8c-3.7,3-6.4,0.1-7.8-5.2s3.6-16.5,3.6-16.5s-4.1-1.4-5.2-1.7s-6.8,11.8-10.7,13.5s-6.1-1.8-7.9-4.9
		c-1.4-2.4-0.6-9.1-0.2-12l-2.9,0.5c-1.1,2.6-4.4,10.8-4.5,13.6c-0.1,3.3,3.2,14.3,4.1,17.4s-0.1,18.7-0.9,21s10,7.3,16.9,6.4
		c4.8-0.8,9.5-2.3,13.9-4.4c0,0-1.8-8.7-2.6-11.3S272,135.8,272,135.8z"></path><path class="st10" d="M272,135.8l1.7-3.1l3.9,5.9l8.4-12.1c0,0-7.4-13-27.2-16.2s-24.3-0.7-26.5,3.1s-5.9,12-5.9,12l9,5.1l3.3-6.6
		c0,0,14.4,21.9,23,19.5C270.3,141,272,135.8,272,135.8z"></path><path class="st6" d="M260.1,88c-2.1-1.1-4.7-1-6.7,0.3c-1.7-0.9-3.7-1.1-5.6-0.7c-2.4,0.6-4.4,2.4-5.1,4.8l0,0
		c-2.7,1.1-4,4.3-2.9,7c0.4,1,1.2,1.9,2.1,2.5c1.1,0.6,2.4,0.9,3.7,0.8c2.1-0.1,3.8-1.4,4.4-3.4l0.3-0.3c0.5,0.2,0.9,0.2,1.4,0.2
		c0.5,0,1-0.1,1.5-0.3c0.6,0.1,1.2,0,1.7-0.1c1,0.7,2.4,1,3.6,0.6c2.2-0.8,3.9-2.6,4.4-4.9C263.6,92,262.4,89.3,260.1,88z"></path><path class="st6" d="M245,102.1c0,0-4.9,0.6-4.9-3.1s4.2-6,4.2-6c0.1-2.2,1.7-4.1,3.9-4.6c2.3-0.5,4.7,0.2,6.2,2
		c0,0,1.3-1.9,4.9-1.4s3.6,4.9,3.1,5.4c1.3,0.4,2.3,1.5,2.6,2.8c0.4,2-1.2,4.3-1.2,4.3c0.3,1.3,0.3,2.7-0.2,3.9
		c-0.8,2-4.3,4.7-4.3,4.7"></path><path class="st7" d="M246.1,111.6c2.3,6.5,8.7,3.4,12.5-0.3c0.3-0.4,0.5-0.9,0.7-1.3c0,0,3.1-3.1,1.7-4.7s-2.5,0.6-2.5,0.6
		s-2.6-1.1-2.6-2.7s0.5-2.7-2.3-3c-2.4-0.2-7.6-3.6-9.6-1.2C244.4,103.2,244.7,107.7,246.1,111.6z"></path></g><g id="character_2"><path class="st7" d="M384.7,191.8c0.4,0,12.4,4.5,14.8,6.7c2.2,2.1,3.3,5.1,3,8.1c-0.3,2.6-7.9,17.9-7.9,19.2s0.6,6.3,0.8,8.3
		s-0.9,6.3-2.6,7.9s-4.7,4.4-5.2,3s0.6-9,0-9.6s-2,2.5-2,2.5c0,1.5,0.4,3.3-0.3,3.7s-2.2-1.7-2.3-3.1s4.3-11,4.6-13.1
		s3.8-15.1,3.2-16.8s-6.6-3.7-6.6-3.7"></path><path class="st6" d="M302.8,322.6v3.5c0,0,1.3,3.1,5.6,2.8s8.2-3.9,12.4-5s9.1-1.9,10.8-3.4s1.8-8.2,1.8-8.2"></path><path class="st7" d="M335.8,258c0,0-11.5,44.1-11.3,46.3s3,4.1,5.6,3.4s9.4-14.2,10.8-19s6.1-20,13-24.5S335.8,258,335.8,258z"></path><path class="st7" d="M353.6,268.9c2.4,2.1,5.5,3.3,8.7,3.4c5.7,0.4,35.6-1.7,35.6-1.7s2.4-7.2,0-8.4s-28.3-4.1-28.3-4.1"></path><path class="st11" d="M346.8,232.9c0,0-0.6,20.9,0,22.8c0.6,1.9,10.8,11.9,10.8,11.9l15.2-10.8l-7-24.4"></path><path class="st12" d="M346.8,232.9c0,0-0.6,20.9,0,22.8c0.6,1.9,10.8,11.9,10.8,11.9l15.2-10.8l-7-24.4"></path><path class="st11" d="M357.5,232.5c-1.8,0.9-25.6,21.8-25.2,23.7c0.4,1.9,4.1,5.9,7.3,8s8.9,3.8,11,5.4c0.9,0.9,2.1,1.4,3.4,1.6
		c0,0,23.6-23.3,24.3-28c0.4-3.6,0.4-7.2,0-10.8"></path><path class="st10" d="M348.4,178.8c0,0-7.2-1.3-9.5,1.9s-5.7,19.9-5.2,19.9s10.5,3.7,10.5,3.7s2.5,11.7,2.8,14.5
		s-0.1,14.2-0.1,14.2s11.1,4,19.3,4.8c5,0.5,10.1-0.8,14.4-3.5l-1.3-28.4l6.6,1.2c0,0,3.2-10.7,1.2-15.8c0,0-21.7-11.5-29.2-12.7"></path><path class="st13" d="M341.7,176.8c0,0-4.4-0.8-5.5-3.9s0.3-6.7,4.1-6.9c0,0,0.2-4.3,6.3-5s7.2,1.9,7.2,1.9s2-1,4.5,1.2
		s3.4,10,2.2,12.8c-1,2.1-2.5,3.9-4.3,5.3"></path><path class="st7" d="M338.9,171.9c0,0.9,3,8.7,4.4,11s5.3,5.7,8.3,5.5s5.3-8.3,5.3-8.3s2.3-3.5,1.1-4.7s-3.6,0.7-3.6,0.7
		c-1.9-0.9-3.4-2.4-4.3-4.2c-1.2-2.8-5.4-1.3-7.9,0.6S338.9,171.9,338.9,171.9z"></path><path class="st13" d="M303.4,324.2c-1.2-1.9-0.5-4.4,1.4-5.6c0.2-0.1,0.4-0.2,0.6-0.3c2.8-1.1,6.8-2.9,9.1-4.8
		c3.2-2.6,5.5-4.1,6.9-5.8s0.3-7,2-7s5.5,1.4,6,2.5s-1.5,4.7-0.4,4.5s4-3.2,4-3.2c-0.3,1.6-0.3,3.1,0,4.7c0.6,2.3,0.4,4.7-0.4,7
		c-0.9,2.6-9.9,4-13.3,6.1s-9.7,5.4-13.5,3.9C304.8,325.9,303.9,325.2,303.4,324.2z"></path><path class="st6" d="M408.8,294.5l3.4,0.6c0,0,3.3-0.7,3.7-5.1s-2.4-8.7-2.8-13s-0.3-9.3-1.5-11.3s-7.8-3.1-7.8-3.1"></path><path class="st13" d="M410.4,294.2c-2.1,0.8-4.4-0.2-5.2-2.3c-0.1-0.2-0.2-0.5-0.2-0.7c-0.6-3-1.7-7.2-3.2-9.8
		c-2-3.6-3.1-6.1-4.5-7.8s-6.9-1.5-6.5-3.2s2.3-5.2,3.5-5.5s4.4,2.3,4.4,1.1s-2.4-4.5-2.4-4.5c1.5,0.5,3,0.8,4.6,0.8
		c2.4-0.1,4.7,0.4,6.8,1.6c2.4,1.3,2.3,10.4,3.8,14.1s3.6,10.5,1.5,14C412.4,293.1,411.5,293.8,410.4,294.2z"></path><path class="st7" d="M333.6,200.6c0,0-6.8,5.4-9.1,7.6s-9,9.6-10.7,10.3s-6.2,0-7.9,1.7s-2.4,5-2.5,7.1s0.2,6.4,1.4,6.6
		s2-5.1,2.5-6.7s2.2-3,2.5-2.5s-2,2.6-1.6,3.8s2.2,0.5,3.2-0.3c1.4-1,2.8-2,4.1-3.2c1.1-1.2,2.2-2.4,3.4-3.4
		c0.5-0.3,15-6.6,19.3-10.5c2.8-2.5,5.3-5.4,7.4-8.5L333.6,200.6z"></path></g><g id="character_1"><polyline class="st5" points="97.4,277 121.1,275.1 112.3,266.5 84.4,266.8 	"></polyline><path class="st14" d="M92,266.8c0,0-0.3,5.6,1.9,6.5s7.8,1.1,4.2,3.5s-6.1,1.1-6.1,1.1c-2,2-2.6,4.9-1.7,7.5c1,2.9,0.8,6-0.5,8.7
		c-3.1,1.5-4.5,1-6.5-3s-4.2-23.7-3.3-24.2S92,266.8,92,266.8z"></path><path class="st13" d="M87.5,294.8c0,0-2.8,1.2-4.9-0.6s-2.4-10.9-4.4-14.3s-3.3-13.8,1.8-13.2"></path><path class="st7" d="M136.9,254.1c0,0,12.8,32.6-7.5,24.1S92,254.1,92,254.1H136.9z"></path><path class="st15" d="M136.9,254.1c0,0,12.8,32.6-7.5,24.1S92,254.1,92,254.1H136.9z"></path><path class="st7" d="M134.1,200.1c0,0,8.5,12.9,11.7,14.1s11.9,6.2,12.8,6.8s8.7,3.1,9.9,6.8s2.3,9.9,0,11s0.2-5.4-3-7.9
		s0.1,2.8-2.6,3.1s-4.4-6.8-6.1-7.3s-12.2-3.8-18.9-7.1S122,206,122,206"></path><path class="st7" d="M69.4,197c-1.7,0.8-13.5,9-16.6,12.6s-9,16.7-9.6,20s-2.5,13.1,0,14.5s4.5,5.2,5.9,3.8s-3.1-6.3-2.2-8.7
		s1.7,2.8,3.4,3s-2-9.3-1.1-10.4s12.4-17.5,20.3-21.3"></path><path class="st7" d="M110.8,245.9c2,1.9,18,25.6,24,42.1s12.4,24.4,12.4,24.4s-4,16-6.9,12.6s-14.4-20.9-25-42.9
		c0,0-17.5-9.9-27-22.4"></path><path class="st6" d="M119.6,225.7c0,0,22.7,31.8,21.2,34.5s-11.3,7.6-13.4,7.6s-8.1-13.9-15.9-13s-13.3,13-11.7,15.7
		c0,0-9.6-3.6-12.8-10.8s0-23.7,0-23.7"></path><path class="st5" d="M101.2,271.8l-1.7-0.6c-0.4-0.2-9.8-3.8-13.1-11.1s-0.2-23.5,0-24.2l1.3,0.2c0,0.2-3.2,16.5,0,23.4
		c2.4,5.4,8.7,8.7,11.3,9.9c0.1-2.1,0.7-4.2,1.8-6.1c2-4.1,6-8.6,10.8-9.2c5.6-0.6,10.2,5.6,13.3,9.8c1,1.4,2.3,3.1,2.8,3.2
		c1.7,0,11.3-4.8,12.8-7.3c0.5-1.9-10.3-18.7-21.1-33.8l1-0.8c6.9,9.7,22.8,32.5,21.2,35.2s-11.6,7.9-14,7.9c-1,0-1.8-1.2-3.8-3.8
		c-2.9-3.9-7.2-9.8-12.1-9.2c-4.3,0.5-7.9,4.7-9.8,8.5c-1.5,3-1.9,5.5-1.4,6.3L101.2,271.8z"></path><path class="st10" d="M108.7,183.5c1.4,0.2,7.9-6.3,28.2,17.5l-7.5,11.6l-9.8-6.7c0,0-1.6,10.8,0,13.9s6.6,9.9,5.7,12.1
		s-14,13.4-23.7,13.9s-16-6.3-23-4.9c0,0,6.9-8.5,6.9-14.8s0.9-17.5,0.9-17.5s-11.6,2-15.7,5.7l-8.2-15.1
		C62.6,199.3,85.1,179.5,108.7,183.5z"></path><path class="st5" d="M133.8,285.6l0.1-0.1c0.3,0.8,0.6,1.6,0.9,2.4c6,16.5,12.4,24.4,12.4,24.4s-3.1,17.5-6.1,14.1
		c-2.6-3-12.9-18.4-21.7-36C124.3,289.3,129.1,287.6,133.8,285.6z"></path><path class="st14" d="M147.6,332.2c-4.2-2.1-7.3-5.9-8.5-10.4c-2.1-7.6,1.2-19.1,5.3-22.6s15-2.9,14.7,6.6"></path><path class="st13" d="M154.7,331.1c1.3-2.5,1.9-5.3,1.7-8.1c-0.4-4.3,8.1-15.2,2.6-21.2c-4.2-4.6-10.5-2.8-13.9,4.5
		s-3.7,23.8,2.6,26S154.7,331.1,154.7,331.1z"></path><path class="st6" d="M92.9,167.6v-0.2c0.1-1.1,0.4-2.2,1-3.1c1.7-2.3,6.1-3.1,8.7-3.4c3.4-0.5,6.8,0,9.9,1.4c3.4,1.7,3,5.1,2.1,8.1
		c-0.6,2.2-1.3,4.4-1.9,6.5l-12.2,8.7c0,0-5.8-2.8-6.7-5.1C92.6,176.4,92.2,172,92.9,167.6z"></path><path class="st7" d="M113.1,172.1c0,0.9,0.6,16.3-7.3,16.9s-9.2-8.8-9.2-8.8s-4-4.1-2.3-5.2s3.2,0.6,3.2,0.6s4.6,5.5,3.6,2.1
		s-0.8-8.3,3.2-7.7s4.2,2.5,6.4,1S113.2,169.9,113.1,172.1z"></path></g><g id="ball"><path class="st5" d="M244.4,317.1l0.3-0.1l-2.2-6.7c3.8,3.3,6.2,7.8,6.9,12.7l-0.1,0.2C247.7,321,246.1,319,244.4,317.1z"></path><path class="st5" d="M240.6,334.7l-0.1-0.1c2.1-0.2,4.2-0.7,6.2-1.5v2.1c0.2-0.2,0.3-0.3,0.5-0.5c-2.6,4.9-7.1,8.6-12.4,10.2
		c-0.1-1.2-0.3-2.5-0.3-3.7L240.6,334.7z"></path><path class="st5" d="M229.5,305.1c4.7,0.2,9.2,2,12.7,5l-8.2-2.5C232.6,306.7,231,305.8,229.5,305.1z"></path><path class="st5" d="M215.2,311.7l-5,6.3l-1.6,0.9c1.5-4.4,4.5-8.1,8.4-10.5c-0.6,1.1-1.2,2.2-1.6,3.3L215.2,311.7z"></path><path class="st5" d="M219.1,340.9c2.4-0.4,4.7-0.9,7-1.5l7.7,1.9c0.1,1.3,0.2,2.5,0.4,3.8c-4.8,1.3-9.9,0.9-14.4-1.1h0.4
		L219.1,340.9z"></path><path class="st5" d="M230.5,311.7l0.1,0.1c-3.3,1-6.5,2-9.8,3.1v-0.1l-5-2.7c0.6-1.5,1.4-2.9,2.2-4.3c3-1.7,6.4-2.6,9.8-2.6
		c1.7,0.7,3.4,1.6,5,2.6L230.5,311.7z"></path><path class="st5" d="M243.7,317.3c1.8,2,3.5,4.1,5,6.4l-0.1,0.2l-1.9,8.2v0.5c-2.1,0.8-4.3,1.3-6.6,1.5l-3.8-5.4
		c1-3.2,1.8-6.4,2.2-9.7L243.7,317.3z"></path><path class="st5" d="M218.8,324.5c2.4,2.3,5,4.5,7.6,6.5l-0.9,0.3v7.6c-2.2,0.6-4.4,1.1-6.6,1.4l-0.2-0.8l-6.2-5.5
		c-0.4-2.6-0.5-5.2-0.5-7.8L218.8,324.5z"></path><path class="st5" d="M220.7,315.6c3.4-1.2,6.9-2.3,10.4-3.3l6.7,6.5c-0.4,3.1-1.1,6.1-2,9.1l-0.1-0.1l-8.7,2.9
		c-2.8-2.2-5.4-4.5-8-6.9L220.7,315.6z"></path><path class="st5" d="M211.3,325.3c-0.1,2.7,0,5.4,0.4,8.1h-2.6c-1.1-2.5-1.7-5.2-1.7-8c0-1.9,0.3-3.8,0.8-5.7l1.3-0.8L211.3,325.3z
		"></path><path class="st13" d="M242.4,310.1v0.1l-0.2-0.2L242.4,310.1z"></path><path class="st13" d="M208.6,318.9c-0.1,0.3-0.2,0.6-0.3,0.9l1.3-0.8l1.8,6.3c-0.1,2.7,0,5.4,0.4,8.1h-2.6
		c2.1,4.7,5.9,8.5,10.6,10.5h0.4l-1-3.1c2.4-0.4,4.7-0.9,7-1.5l7.7,1.9c0.1,1.3,0.2,2.5,0.4,3.8l0.6-0.2c-0.1-1.2-0.3-2.5-0.3-3.7
		l6.2-6.5l-0.1-0.1c2.1-0.2,4.2-0.7,6.2-1.5v2.1c0.2-0.2,0.3-0.3,0.5-0.5c1.5-2.8,2.3-6,2.3-9.2c0-0.8-0.1-1.7-0.2-2.5l-0.1,0.2
		c-1.5-2.1-3.1-4.2-4.8-6.1l0.3-0.1l-2.2-6.7l-0.2-0.2l-8.2-2.5c-1.4-0.9-2.9-1.8-4.5-2.5c-0.3,0-0.7,0-1,0H228
		c1.7,0.7,3.4,1.6,5,2.6l-2.4,4l0.1,0.1c-3.3,1-6.5,2-9.8,3.1v-0.1l-5-2.7c0.6-1.5,1.4-2.9,2.2-4.3c-0.4,0.2-0.8,0.4-1.1,0.7
		c-0.6,1.1-1.2,2.2-1.6,3.3l-0.1-0.1l-5,6.3L208.6,318.9z M236.3,328.6c1-3.2,1.8-6.4,2.2-9.7l5.2-1.6c1.8,2,3.5,4.1,5,6.4l-0.1,0.2
		l-1.9,8.2v0.5c-2.1,0.8-4.3,1.3-6.6,1.5L236.3,328.6z M227.1,330.8c-2.8-2.2-5.4-4.5-8-6.9l1.6-8.2c3.4-1.2,6.9-2.3,10.4-3.3
		l6.7,6.5c-0.4,3.1-1.1,6.1-2,9.1l-0.1-0.1L227.1,330.8z M212,326.2l6.9-1.7c2.4,2.3,5,4.5,7.6,6.5l-0.9,0.3v7.6
		c-2.2,0.6-4.4,1.1-6.6,1.4l-0.2-0.8l-6.2-5.5C212.1,331.4,211.9,328.8,212,326.2z"></path></g></svg>