<svg transform="scale(2)" version="1.1" id="Layer_1" xmlns="http://www.w3.org/2000/svg" xmlns:xlink="http://www.w3.org/1999/xlink" x="0px" y="0px" viewBox="0 0 500 500" xml:space="preserve" class="show_show__wrapper__graphic__5Waiy "><title>React</title><style type="text/css">
	.st0{fill:#608A46;}
	.st1{opacity:0.63;fill:url(#SVGID_1_);enable-background:new    ;}
	.st2{fill:url(#SVGID_00000099622147564717913160000016849659187392470944_);}
	.st3{fill:#68E1FD;}
	.st4{fill:#124577;}
	.st5{fill:#507282;}
	.st6{fill:#FFFFFF;}
	.st7{opacity:0.51;fill:#124577;enable-background:new    ;}
	.st8{fill:#382624;}
	.st9{fill:#FBB5AD;}
	.st10{fill:#FFC60B;}
	.st11{fill:#D46A00;}
</style><path class="st0" id="Base" d="M456.8,277.9l-162.6-94.6c-2.4-1.4-5.3-1.4-7.7,0L43.2,322.5c-3.7,2.1-5,6.8-2.8,10.5
	c0.7,1.2,1.7,2.2,2.8,2.8l155.6,89.8c7.8,4.5,17.3,4.5,25.1,0l232.9-134.4c3.7-2.1,4.9-6.8,2.8-10.5
	C458.9,279.5,458,278.5,456.8,277.9z"></path><g id="Shadow"><linearGradient id="SVGID_1_" gradientUnits="userSpaceOnUse" x1="191.2591" y1="121.4608" x2="284.7091" y2="224.8908" gradientTransform="matrix(1 0 0 -1 0 502)"><stop offset="0" style="stop-color: rgb(96, 138, 70);"></stop><stop offset="0.99" style="stop-color: rgb(0, 104, 55);"></stop></linearGradient><polygon class="st1" points="354.6,316.9 215.7,395.1 122.8,339.2 262.3,258.3 	"></polygon><linearGradient id="SVGID_00000019636359910950970190000011663988401302022841_" gradientUnits="userSpaceOnUse" x1="-518.5198" y1="204.804" x2="-533.0098" y2="179.964" gradientTransform="matrix(-1 0 0 -1 -389.79 502)"><stop offset="1.614687e-07" style="stop-color: rgb(212, 106, 0);"></stop><stop offset="1" style="stop-color: rgb(96, 138, 70);"></stop></linearGradient><path d="M138.8,309.8c1.9,1.8,5.8-4.5,8.2-3.7
		c3.7,1.3,7.5,2,11.4,2.2c3.6,0.2,7.3-0.2,10.3-2.3c4.7-3.5,5.7-10.1,2.2-14.9c-0.8-1.1-1.8-2-2.9-2.7l4.2-2.1l14.3,10
		c0,0-1.2,20.9-39.8,18L101.8,340l-11.5-8.7L138.8,309.8z" style="fill: url(&quot;#SVGID_00000019636359910950970190000011663988401302022841_&quot;);"></path></g><g id="Smartphone"><path class="st3" d="M272.9,71.7c18.4,10.9,64,37.9,77.6,45.8c2.4,1.4,3.8,3.9,3.8,6.6v187c0.3,3.8-4,7.3-7.5,5.3l-76.6-43.6
		c-3.1-1.8-5-4.2-5-7.8V76.2c0-2.9,2.3-5.2,5.2-5.2C271.2,71,272.1,71.3,272.9,71.7z"></path><path class="st4" d="M265.6,74L290,88v5.2c0,0.9,0.5,1.7,1.2,2.2l18.6,10.8c0.8,0.5,1.8,0.2,2.2-0.6c0.1-0.3,0.2-0.5,0.2-0.8V101
		l35,20.5c0.7,0.4,1.1,1.1,1.1,1.9v186.9c0,0.8-0.7,1.5-1.5,1.5c-0.3,0-0.5-0.1-0.8-0.2l-81.1-47c-0.3,3,1.1,5.8,3.6,7.5
		c4.2,2.7,78.1,44.5,78.1,44.5s5.9,2.6,7.5-4.3v-188c0-2.5-1.2-4.8-3.2-6.2c-3.4-2.4-78.2-46.2-78.2-46.2S268.3,69.2,265.6,74z"></path><ellipse class="st5" transform="matrix(0.9819 -0.1893 0.1893 0.9819 -41.1859 58.1189)" cx="283.7" cy="244.7" rx="3.8" ry="5.6"></ellipse><ellipse class="st5" transform="matrix(0.9819 -0.1893 0.1893 0.9819 -42.2564 60.6888)" cx="296.6" cy="251.6" rx="3.8" ry="5.6"></ellipse><ellipse class="st5" transform="matrix(0.9819 -0.1893 0.1893 0.9819 -43.3095 63.1602)" cx="309" cy="258.3" rx="3.8" ry="5.6"></ellipse><ellipse class="st5" transform="matrix(0.9819 -0.1893 0.1893 0.9819 -44.3576 65.6282)" cx="321.4" cy="265.1" rx="3.8" ry="5.6"></ellipse></g><g id="Key"><path class="st6" d="M134.2,296.4c0-8,9.7-14.3,22.1-14.3s22.1,6.3,22.1,14.3s-9.7,14.3-22.1,14.3S134.2,304.4,134.2,296.4z
		 M140.5,296.4c0,3.8,6.5,8,15.8,8s15.8-4.2,15.8-8s-6.5-8-15.8-8S140.5,292.6,140.5,296.4L140.5,296.4z"></path><path class="st6" d="M141.1,302.4c-0.7-0.7-31.1,17.5-31.1,17.5l-19.6,11.4l4.3,3.3c1.1,0.8,2.6,1,3.8,0.3l47.3-27.3L141.1,302.4z"></path><path class="st6" d="M90.8,323.5l8,5.3l-4.2,5.9l-8.6-5.4C86,326.4,88.1,323.6,90.8,323.5z"></path><path class="st6" d="M100.3,317.5c1.1-1,2.6-1.4,4.1-1.2l7.6,5l-4.2,5.9l-9.4-5.9C98.5,319.8,99.2,318.4,100.3,317.5z"></path></g><g id="Shield"><path class="st3" d="M164.5,124.9l-10.7-6c0,0-10.1,10.1-37.2-2.7c0,0-15.8,30.9-36.6,45.9c0,0-1.2,56.4,29.8,66.8"></path><path class="st7" d="M164.5,124.9l-10.7-6c0,0-10.1,10.1-37.2-2.7c0,0-15.8,30.9-36.6,45.9c0,0-1.2,56.4,29.8,66.8"></path><path class="st3" d="M89.3,167.9c15.3-12.8,27.7-28.7,36.6-46.6c0,0,16.4,13,38.7,3.6c0,0-3.5,47.6-14.4,70.9s-13.1,27-23.2,38.2
		c0,0-12.7,2.8-23.4-11.7C88.5,202.2,89.3,167.9,89.3,167.9z"></path><path class="st6" d="M124.1,191c-2.3-4-4.5-8.1-6.6-12.2c-1-2-3.5-2.8-5.5-1.7c-0.6,0.3-1.1,0.8-1.5,1.3l-0.1,0.1
		c-0.8,1.2-0.9,2.8-0.2,4.2c2.2,4.2,4.4,8.4,6.8,12.6C119.6,199.7,126.8,195.6,124.1,191z"></path><path class="st6" d="M117.3,191.1c8.5-13.2,16.2-26.8,23.2-40.9c2.4-4.8,9.5-0.6,7.1,4.2c-7,14-14.7,27.7-23.2,40.9
		C121.6,199.7,114.4,195.5,117.3,191.1z"></path></g><g id="Padlock"><path class="st4" d="M317.2,207.1c0,0,9-5.8,9.1-5.9s-6-4.7-6-4.7l-3.5,6.6"></path><polyline class="st4" points="282.4,136.7 290.4,131.5 292.4,142.1 284.3,140.4 	"></polyline><path class="st4" d="M293.5,131.3c-1.4-0.8-3.1-0.3-3.9,1c-0.2,0.4-0.4,0.9-0.4,1.4l-0.9,45.2c0,1.4,0.8,2.8,2,3.5l31.8,18.9
		c1.9,1.2,4.3,0.6,5.5-1.3c0.4-0.7,0.6-1.4,0.6-2.2v-44.2c0-1.5-0.8-2.8-2.1-3.5L293.5,131.3z"></path><path class="st8" d="M285,136.9c-1.4-0.8-3.1-0.3-3.9,1c-0.2,0.4-0.4,0.9-0.4,1.4l-0.9,45.1c0,1.4,0.8,2.8,2,3.5l31.8,18.9
		c1.9,1.2,4.3,0.6,5.5-1.3c0.4-0.7,0.6-1.4,0.6-2.2v-44.2c0-1.5-0.8-2.8-2.1-3.5L285,136.9z"></path><ellipse class="st3" transform="matrix(0.9968 -7.950302e-02 7.950302e-02 0.9968 -12.0993 24.2367)" cx="298.3" cy="164.1" rx="6.8" ry="10.9"></ellipse><path class="st3" d="M296.2,165.6h2.3c0.8,0,1.4,0.6,1.4,1.4v18.6c0,0.8-0.6,1.4-1.4,1.4h-2.3c-0.8,0-1.4-0.6-1.4-1.4V167
		C294.8,166.2,295.4,165.6,296.2,165.6z"></path><ellipse class="st6" cx="315.8" cy="149.5" rx="3.3" ry="2"></ellipse><path class="st6" d="M305.9,114.6c-15.4-3.7-15.2,14.1-15.2,14.1v6.4c0,0.9-0.1,2.3,0.3,2.8c0.8,0.8,1.8,1.2,2.9,1.1
		c0.9,0,2.2-0.1,2.8-1c0.3-0.8,0.3-1.6,0.2-2.4c-0.1-1.5-0.1-3-0.1-4.4c0.1-3.2,0.4-7.1,2.4-9.7c1.4-1.7,3.7-2.3,5.7-1.4
		c7.9,2.6,7.7,12.1,7.7,12.1v17.5h6.6v-18C319.1,131.5,317.9,117.4,305.9,114.6z"></path></g><g id="Character"><path class="st9" d="M261.4,208.4c0.1-0.2,0.2-0.5,0.2-0.7c0-2.6-1-5.1-2.9-6.9c-1.3-1.2-3.4-1.1-4.5,0.3c-0.2,0.2-0.3,0.4-0.5,0.7
		c-2.1,4.2,2.6,8.4,6.4,8.9c1,0.1,1.5-0.7,1.3-1.6C261.3,208.9,261.4,208.6,261.4,208.4z"></path><polygon class="st8" points="257.6,280.8 250.1,276.6 256.4,293.7 	"></polygon><path class="st9" d="M326,180.9c-0.1-0.1-0.1-0.3-0.2-0.4c0.6-0.6,0.9-1.4,0.9-2.3c-0.1-0.5-0.3-1-0.8-1.4c0.5-0.6,0.4-1.5-0.2-2.1
		c-0.3-0.3-0.8-0.4-1.2-0.3c-2.1,0.4-3.5,3.2-4.6,4.8c-0.8,1.2-1.6,2.5-2.4,3.7c-0.1-1.8-0.4-3.7-0.5-5.4s-2.8-1.8-2.8,0
		c0.2,2.7-0.1,5.5-0.8,8.2c-0.3,0.1-0.5,0.3-0.7,0.5c-7.9,8.3-17.7,14.4-28.6,17.7c-1.4,0.5-2,2-1.5,3.4c0.3,0.8,1,1.4,1.8,1.6
		c0.1,1.1,0.8,2,1.9,2.3c0.2,0.8,0.7,1.5,1.4,1.9l-1.8,0.8c-3,1.2-1.7,6.2,1.4,4.9c11.4-4.8,21.5-12.3,29.2-22
		c0.9-0.9,1.8-1.7,2.6-2.6c1.3-1.4,7.9-7.9,6.2-10.7C325.6,182.9,326.5,182.1,326,180.9z"></path><path class="st9" d="M280.9,150.5c-3.1,1.2-5.4,7.8-5.2,9.2l2.4-1.2l0.4-0.5C279,155.4,279.8,152.8,280.9,150.5z"></path><path class="st9" d="M281.3,155.8c-0.3-0.1-0.5-0.2-0.7-0.4c-1.2-0.9-3,0.3-4.1,0.9c-1.4,0.7-2.7,1.6-3.9,2.6
		c-0.6,0.7-1,1.6-1.2,2.5c-0.5,1.1-0.9,2.2-1.4,3.2c-1.1,2.2-2.3,4.4-3.6,6.5c-2.6,4.1-5.6,7.8-9.1,11.1c-1.6,1.6,0.9,4,2.5,2.4
		l1.1-1.1c0.5,0.3,1.1,0.3,1.6-0.1c0.3-0.2,0.6-0.4,0.8-0.6c0.1-0.1,0.2-0.2,0.4-0.3c0.3,0.9,1.3,1.3,2.2,1c0.2-0.1,0.4-0.2,0.6-0.4
		l1.2-1.2c0.4-0.1,0.7-0.4,0.8-0.8c0-0.1,0.2,2.4,0.2,2.3c1.9-2,4.1-7.5,6-10.8c0-0.2,0-0.3,0.1-0.4c1.5-2.4,1.3-3.8,1.5-6.5
		c0-1.6,0.1-3.1,0.4-4.6l3.1-2.4c0.7-0.6,1.5-1.4,1.4-2.3C281.3,156.2,281.3,156,281.3,155.8z"></path><path class="st10" d="M292.8,199.3c-11,3.2-12.8,2-18,1.8s-10.8-7.4-10.8-7.4s-1.3-16.3-11-3.5c-7.2,9.5-10,37-10.9,50.3
		c3.6,2.9,8.4,3.9,12.9,4.6c3,0.5,6,0.8,9,0.8c1.9,0,3.7-0.4,5.4-1.2l5.1-23.9c13.1,1.1,23.2-6.6,23.2-6.6L292.8,199.3z"></path><path class="st9" d="M269.2,179.8c0,0,7.1,13.5,0.1,17.3s-12.4-2.5-13-4.1S255.8,178.8,269.2,179.8z"></path><path class="st8" d="M269.8,177.7c-3.6-2.6-8-2.6-12.1-1.7c-3.4,0.8-7,2.3-9.4,4.9c-0.9-0.6-2-0.9-3.1-1c-2.7-0.2-5.2,1.4-6.2,3.9
		c-0.9,2.4,0,5,2.1,6.4c1.6,0.8,3.4,1,5.2,0.5c0,0.1,0,0.2,0,0.3c0.2,2.6-2.2,3.9-3.1,6c-0.5,1-0.6,2.1-0.4,3.2
		c0.2,1.1,1.3,2.2,1.3,3.3c-0.2,0.8-0.6,1.6-1.1,2.3c-0.5,0.7-0.9,1.5-1.2,2.4c5.1,2.7,11.4,2.7,16.9,1.6c5.9-1.2,11.9-3.9,15.8-8.5
		c-0.2-0.6-0.6-1.1-1.1-1.5c-0.9-0.6-1.9-1.2-3-1.6c-1.5-0.9,0-3.5,0-4.9c-0.1-2.4-1.9-3.4-3.9-4.3c-1.4-0.6-1.5-1.5-1.5-3
		c-0.1-1.2,0.1-2.4,0.7-3.4c0.4,0.1,0.9,0,1.3-0.3c0.8-0.4,1.6-0.8,2.4-1.1c0.9-0.3,1.3-1.3,1-2.1
		C270.4,178.5,270.2,178,269.8,177.7z"></path><path class="st8" d="M264.4,183.1c2.3-0.5,4.5-1.3,6.6-2.3c0-0.2,0.7-8.6-14.3-5.7s-7.9,20.8-7.9,20.8"></path><path class="st9" d="M248.1,369.3c-1.4-0.5-3.4-0.8-4.3-2.1s-0.9-3.2-0.9-4.7s0-3,0-4.5c-0.2-0.1-0.3-0.3-0.3-0.6
		c-0.1-1.2-0.1-2.5,0-3.7l-6.2-0.6c0,0-2.8,10.6-2.6,11.8s6.1,9.3,9.1,9.8s11.3-2.1,12-3.2c0,0,0-0.1,0.1-0.1
		C252.7,370.8,250.4,370.1,248.1,369.3z"></path><path class="st9" d="M291,347.1c-2-0.4-10.5,1-10.5,1s-1.2-6.9-1-7.3l-8.8,0.6c0,0-1.1,12.9-1.1,14.5c0,3.1,3.9,4.1,4.7,4
		c0.6-0.2,1.2-0.4,1.8-0.7c-0.3-1.6-0.5-3.2-0.5-4.9c0-0.8,0.2-1.3,0.9-1.5c1.3-0.5,3.7,0.2,5,0.5c1.6,0.3,3.1,0.7,4.7,1
		c3.5-1.9,6.4-3.6,6.7-4.3C293.4,348.2,294.2,347.8,291,347.1z"></path><path class="st8" d="M294,347.7c-0.1-0.1-0.1-0.2-0.2-0.2c-0.7-0.7-2.5-0.6-3.3-0.6c-3.4,0-6.7,0.4-10,1.3c0,0,8-1.1,8.3,0.3
		c0.3,1.2,0,2.4-0.8,3.3c-3.4,3-8.6-0.3-11.8-1.7l-6-2.6l-0.4,4.9c0,0-0.4,6.1,0,6.8s4,2.6,4.8,2.2s3.1-1.8,3.1-1.8l-0.5-5.9
		c0,0,5,2.2,7.4,1.5C286.3,354.7,296,350.5,294,347.7z"></path><path class="st11" d="M265.5,344.9c7.9,1.5,16.2,0.1,22.1-5.2c0.1-13.1,1.3-24.9,1-37.9c-0.6-21.3-3.7-42.3-18.7-58.9l-27.2-4.2
		c-11.1,21-13.3,117.3-13.3,117.3s13.8,8.9,24.4,4.6l4.1-80.2c0,0,7.2,8.5,8.5,13.3C267.3,297.1,265.3,328.8,265.5,344.9z"></path><path class="st8" d="M239.1,365.1c0,0,3.2,10.1,4.4,10.8s13.7-3.3,11.8-5.7c-1.2-1.5-8.7-1.5-9.4-1.7c0,0,4,1.3,4,1.9
		s-5,2.9-5.2,2.5s-5.7-9.4-5.7-9.4l-5.1-1.8l-4.2,9.3l3.6,1.5c0,0,1.1,2.8,1.5,2.8s3.3-5.2,3.3-5.2s0.7,3.3,1.2,3.7s4.7,3.8,6.6,1.2
		l-3.5-3.9"></path><polyline class="st8" points="229.6,371.1 230.3,373.4 234.6,375.5 234.6,371.1 232.1,370.2 	"></polyline></g></svg>