<svg transform="scale(2)" id="_0270_order_confirmation" data-name="0270_order_confirmation" xmlns="http://www.w3.org/2000/svg" xmlns:xlink="http://www.w3.org/1999/xlink" viewBox="0 0 500 500" class="show_show__wrapper__graphic__5Waiy "><title>React</title><defs><style>.cls-1{fill:#feb2d8;}.cls-12,.cls-13,.cls-15,.cls-18,.cls-2,.cls-7{isolation:isolate;}.cls-13,.cls-15,.cls-2,.cls-7{opacity:0.48;}.cls-2{fill:url(#linear-gradient);}.cls-3{fill:#8fdb5e;}.cls-10,.cls-4{fill:#f7931e;}.cls-5{fill:#68e1fd;}.cls-6{fill:#fff;}.cls-7{fill:url(#linear-gradient-2);}.cls-12,.cls-16,.cls-8,.cls-9{fill:#42210b;}.cls-8{opacity:0.5;}.cls-10,.cls-9{opacity:0.2;}.cls-11{fill:#c13d3d;}.cls-12{opacity:0.14;}.cls-13{fill:url(#linear-gradient-3);}.cls-14,.cls-18{fill:#34323d;}.cls-15{fill:url(#linear-gradient-4);}.cls-17{fill:#ff6161;}.cls-18{opacity:0.7;}</style><linearGradient id="linear-gradient" x1="285.56" y1="1928.31" x2="332.08" y2="1997.86" gradientTransform="matrix(1, 0, 0, -1, 0, 2229.61)" gradientUnits="userSpaceOnUse"><stop offset="0.01" stop-color="#2e3192" stop-opacity="0"></stop><stop offset="1" stop-color="#34323d"></stop></linearGradient><linearGradient id="linear-gradient-2" x1="45.54" y1="1904.41" x2="130.15" y2="1975.26" xlink:href="#linear-gradient"></linearGradient><linearGradient id="linear-gradient-3" x1="268.58" y1="1834.13" x2="304.95" y2="1866.19" xlink:href="#linear-gradient"></linearGradient><linearGradient id="linear-gradient-4" x1="170.24" y1="1856.12" x2="211.31" y2="1894.06" xlink:href="#linear-gradient"></linearGradient></defs><path class="cls-1" id="field" d="M256.94,425.38l218-128.88c6.94-3.9,12.89-10.3,6.12-14.49L262.28,156c-3.27-2-8.27-3.37-11.6-1.42L21.85,287.35c-6.94,4-8.19,15.29-1.23,19.32L228.14,425.18A29,29,0,0,0,256.94,425.38Z"></path><g id="confirmed"><polyline class="cls-2" points="416.68 283.66 299.75 344.53 182.65 276.76 298.01 209.58"></polyline><polygon class="cls-3" points="293.42 214.34 416.68 284 416.68 141.86 293.78 70.89 293.42 214.34"></polygon><polygon class="cls-4" points="281.09 221.61 404.35 291.25 404.35 149.12 281.44 78.15 281.09 221.61"></polygon><polygon class="cls-5" points="267.56 227.3 390.82 296.94 390.82 154.81 267.92 83.84 267.56 227.3"></polygon><ellipse class="cls-6" cx="327.76" cy="173.57" rx="23.52" ry="33.95" transform="translate(-25.34 60.11) rotate(-10.09)"></ellipse><path class="cls-3" d="M339.67,162l-18.13,18.61-5.37-5.72c-1.45,1.58-1.82,2-3.37,3.46L321.91,189l20.82-23.37Z"></path><path class="cls-6" d="M303.86,227.1a10.19,10.19,0,0,1,.51,3.29c0,2.33-.79,3.59-1.89,3.73a3.09,3.09,0,0,1-1.85-.51,7.33,7.33,0,0,1-3.19-4.2,10.26,10.26,0,0,1-.49-3.29c0-2.34.79-3.6,1.89-3.72a3.07,3.07,0,0,1,1.84.48A7.19,7.19,0,0,1,303.86,227.1Zm-1.62,4.74a3,3,0,0,0,.65-2.31,6.41,6.41,0,0,0-.63-3,4,4,0,0,0-1.58-1.8,1.35,1.35,0,0,0-1.6,0,3.09,3.09,0,0,0-.63,2.29,6.75,6.75,0,0,0,.6,3,4.11,4.11,0,0,0,1.59,1.81,1.35,1.35,0,0,0,1.6,0"></path><path class="cls-6" d="M310.33,212.78a10,10,0,0,1,.51,3.29c0,2.34-.79,3.6-1.89,3.74a3.09,3.09,0,0,1-1.85-.51,7.27,7.27,0,0,1-3.18-4.21,10.2,10.2,0,0,1-.52-3.29c0-2.33.81-3.59,1.9-3.7a3.07,3.07,0,0,1,1.84.48A7.23,7.23,0,0,1,310.33,212.78Zm-1.64,4.74a2.93,2.93,0,0,0,.66-2.31,6.59,6.59,0,0,0-.63-3,4.05,4.05,0,0,0-1.58-1.8,1.35,1.35,0,0,0-1.6,0,3,3,0,0,0-.64,2.3,6.63,6.63,0,0,0,.61,3,4.22,4.22,0,0,0,1.59,1.81,1.34,1.34,0,0,0,1.59,0"></path><path class="cls-6" d="M315.94,219.56l2.17,5.95-1.63-.94-2.09-5.73-.77-.44v4.52l-1.46-.84V211.59l2.86,1.65a4.9,4.9,0,0,1,2.37,4.35C317.42,219,316.88,219.73,315.94,219.56ZM315,217.4c.62.37.93.15.93-.65a1.8,1.8,0,0,0-.91-1.71l-1.41-.82v2.36l1.41.82"></path><path class="cls-6" d="M321.65,217a8.32,8.32,0,0,1,3.64,7.34c0,3.67-1.84,4.21-3.69,3.15l-2.46-1.41V215.63Zm1.34,8.77c.54-.18.88-.94.88-2.28a5.87,5.87,0,0,0-.85-3.27,5.32,5.32,0,0,0-1.84-1.72l-.55-.3v6.88l.55.31a2.19,2.19,0,0,0,1.79.35"></path><polygon class="cls-6" points="331.5 222.69 331.49 224.49 328.08 222.54 328.08 224.73 330.81 226.31 330.79 228.1 328.07 226.53 328.06 229.43 331.57 231.45 331.56 233.25 326.58 230.39 326.63 219.9 331.5 222.69"></polygon><path class="cls-6" d="M336.71,231.5l2.17,5.95-1.64-.94-2.08-5.73-.77-.45v4.53l-1.46-.85V223.53l2.86,1.65a4.89,4.89,0,0,1,2.37,4.35C338.23,230.94,337.67,231.68,336.71,231.5Zm-.89-2.15c.61.35.92.15.92-.66a1.8,1.8,0,0,0-.91-1.7l-1.41-.82v2.36l1.41.82"></path><path class="cls-6" d="M292.68,218.29a7,7,0,0,1,3.25,5.05l-1.35-.32a4.33,4.33,0,0,0-1.93-2.94,1.34,1.34,0,0,0-1.61,0,3.13,3.13,0,0,0-.63,2.29,6.76,6.76,0,0,0,.6,3,4.17,4.17,0,0,0,1.61,1.84c1,.55,1.6.31,1.95-.71l1.34,1.2c-.37,1.8-1.57,2.29-3.27,1.35a7.19,7.19,0,0,1-2.69-2.94,9.54,9.54,0,0,1-1.06-4.57,4,4,0,0,1,1.09-3.31A2.27,2.27,0,0,1,292.68,218.29Z"></path><polygon class="cls-6" points="312.95 230.05 312.9 240.54 311.45 239.7 311.47 233.23 309.94 237.86 308.88 237.26 307.41 230.9 307.37 237.37 305.92 236.52 305.96 226.04 307.61 226.99 309.42 234.59 311.31 229.12 312.95 230.05"></polygon><path class="cls-6" d="M317.54,232.7a5.11,5.11,0,0,1,2.43,4.64c0,1.92-.87,2.69-2.47,1.79l-1.5-.88v4.1l-1.47-.85V231Zm-.08,4.55c.69.39,1,.13,1.05-.81a2.11,2.11,0,0,0-1-2l-1.45-.83v2.79l1.45.84"></path><polygon class="cls-6" points="322.79 235.72 322.75 244.4 326.1 246.32 326.08 248.12 321.29 245.36 321.33 234.87 322.79 235.72"></polygon><polygon class="cls-6" points="332.31 241.19 332.31 242.99 328.9 241.03 328.89 243.22 331.63 244.79 331.61 246.59 328.89 245.02 328.87 247.92 332.39 249.93 332.38 251.73 327.4 248.87 327.45 238.39 332.31 241.19"></polygon><polygon class="cls-6" points="339.35 245.22 339.33 247.02 337.16 245.77 337.12 254.46 335.65 253.61 335.69 244.94 333.52 243.68 333.52 241.88 339.35 245.22"></polygon><polygon class="cls-6" points="345.47 248.75 345.45 250.55 342.06 248.59 342.05 250.79 344.78 252.36 344.77 254.15 342.05 252.58 342.02 255.48 345.55 257.51 345.54 259.29 340.55 256.43 340.61 245.95 345.47 248.75"></polygon><path class="cls-6" d="M349.39,251a8.33,8.33,0,0,1,3.64,7.35c0,3.66-1.84,4.2-3.7,3.14l-2.45-1.41V249.59Zm1.34,8.77c.54-.17.87-.94.87-2.28a5.83,5.83,0,0,0-.84-3.26,5.2,5.2,0,0,0-1.77-1.69l-.54-.31v6.88l.54.31a2.16,2.16,0,0,0,1.78.35"></path></g><g id="shopping_cart" data-name="shopping cart"><path class="cls-7" d="M157.94,265.11l-8.57-11.9-11.18-3.93L121,256.86,29.54,304.58l34.09,18.28C77.55,314.86,144.25,273.59,157.94,265.11Z"></path><path class="cls-4" d="M152.3,268.78V241.19l24.7-13.8v27.4Z"></path><path class="cls-8" d="M152.3,268.78V241.19l24.7-13.8v27.4Z"></path><path class="cls-4" d="M152.3,241.19l-24-13.8s-.67,27.82,0,28.2l24,13.13Z"></path><path class="cls-9" d="M152.3,241.19l-24-13.8s-.67,27.82,0,28.2l24,13.13Z"></path><polygon class="cls-4" points="128.26 227.39 152.3 212.7 177 227.39 152.3 241.19 128.26 227.39"></polygon><polygon class="cls-6" points="137.42 221.81 162.43 235.53 162.43 249.92 169.63 246.3 169.63 231.5 144.62 217.4 137.42 221.81"></polygon><polygon class="cls-10" points="137.42 221.81 162.43 235.53 162.43 249.92 169.63 246.3 169.63 231.5 144.62 217.4 137.42 221.81"></polygon><path class="cls-3" d="M88.36,173.62c-16.89,1.17-16,28.48-17.14,39.81-.28,2.85,4.09,3.8,4.39.93,1-9.4.32-22.24,5.57-30.53,1.62-2.57,3.54-5.09,6.87-5.38a7.42,7.42,0,0,1,5.51,2.17c1.47,1.34,2.27,6.62,2.51,8.19a67,67,0,0,1,.29,17.66c-.29,2.85,4,3.8,4.39.93C101.69,198.54,103.4,172.57,88.36,173.62Z"></path><polyline class="cls-11" points="113.62 191.95 118.69 200.41 128.85 202.53 121.23 228.76 99.65 214.8"></polyline><polyline class="cls-8" points="113.62 191.95 118.69 200.41 128.85 202.53 121.23 228.76 99.65 214.8"></polyline><polygon class="cls-11" points="61.56 220.72 113.62 191.95 111.92 234.68 72.14 238.5 61.56 220.72"></polygon><polygon class="cls-5" points="80.19 227.07 88.23 307.89 136.88 278.71 128.85 202.53 80.19 227.07"></polygon><polygon class="cls-5" points="80.19 227.07 74.68 220.72 61.56 220.72 56.06 291.39 70.18 297.9 88.23 307.89 80.19 227.07"></polygon><polygon class="cls-12" points="80.19 227.07 74.68 220.72 61.56 220.72 56.06 291.39 70.18 297.9 88.23 307.89 80.19 227.07"></polygon><path class="cls-3" d="M110.1,187.13c-16.93.16-17.68,27.47-19.5,38.7-.45,2.82,3.87,4,4.33,1.2,1.51-9.4,1.65-22.17,7.38-30.15,2.35-3.28,6.47-6,10.53-3.88,3.62,1.91,3.68,6.21,4,9.8a67.34,67.34,0,0,1-.77,17.65c-.47,2.82,3.85,4,4.32,1.2C121.91,212.8,125.18,187,110.1,187.13Z"></path></g><g id="plant"><path class="cls-13" d="M314.39,378.92,305.82,367l-11.21-3.93-17.16,7.57-26.73,16.76L272.2,402.3C286.17,394.3,300.64,387.34,314.39,378.92Z"></path><path class="cls-3" d="M271.71,282.08a16.35,16.35,0,0,1,8,1.55,13,13,0,0,1,5.63,6.42c1.22,2.58,1.77,6.26,4.32,7.92a7.38,7.38,0,0,1,2.52,2.19,6.56,6.56,0,0,1,.78,6.12c-1.13,2.27-5.85,3.65-8.05,3.24"></path><path class="cls-14" d="M269.61,282.36A15.4,15.4,0,0,0,256,294a20.5,20.5,0,0,0-.09,9.6c.62,2.55,2.12,7,5.24,7.16,4.2.25,5.57-3.68,6.9-6.9s2.68-6.78,6.08-8.06a9.07,9.07,0,0,1,9.71,2.19Z"></path><path class="cls-3" d="M288.82,299.44c-2.53-3.29-4.64-6.88-7.1-10.22a30.31,30.31,0,0,0-4.93-6C271,280.42,263.6,283,259.34,288c.59.17,1.42.21,1.87.37a16.77,16.77,0,0,1,6.71,4.74c2.59,2.86,4.61,6.37,6.89,9.4,3.72,4.94,8.64,9,15,6C293.82,306.67,290.62,301.79,288.82,299.44Z"></path><path class="cls-14" d="M309.46,257.16s13.17-1,12.92,19.79-19.93,7.13-15.61-5.37"></path><path class="cls-3" d="M307.55,277.62c-.14-6.34,7-11,13-11.78-1-3.63-4.65-9.49-11.91-9.3-9,.23-15.78,9.4-17.29,20.14S298,294.39,298,294.39l4.35,3.7C310.33,295,307.35,283.43,307.55,277.62Z"></path><path class="cls-14" d="M343.41,292.56a27.59,27.59,0,0,0-3-11.32,12.48,12.48,0,0,0-8.57-6.63l-7.41,14.27s11.05-19.32,6.54-4.44,10.36,31.56,12.4,9.4C343.37,293.38,343.39,293,343.41,292.56Z"></path><path class="cls-5" d="M291,329.72s-9.91,6.45-7.16,21.49a83.21,83.21,0,0,0,4.4,15.29c1.92,4.9,3.33,11.24,8.27,14,4.61,2.58,11.74,3.05,16.38.22,4.26-2.6,5.76-8.49,7.33-12.88a79.72,79.72,0,0,0,3.8-16.63C328.73,314.81,291,329.72,291,329.72Z"></path><ellipse class="cls-14" cx="304.37" cy="331.93" rx="14.45" ry="5.22"></ellipse><path class="cls-14" d="M305.54,304.08c-2-4.87-5.79-9-7-14.19a18.54,18.54,0,0,1,7.45-19c1.1-.81,0-2.69-1.07-1.84-9.24,6.71-11,18.16-5.64,27.92,1.66,3,3.85,5.92,4.87,9.27,1.34,4.35-.16,7.49-2.2,10.74a12.4,12.4,0,0,0-3.21-8.76c-2.4-2.23-5.95-2.6-8.92-3.6C284.09,302.7,279,299.41,278,293c-.2-1.34-2.27-.78-2.06.57.8,5.24,4.25,9,8.88,11.38a62.2,62.2,0,0,0,8.58,3,10,10,0,0,1,5.66,5.53c1.34,3.14.44,5.31-.34,8.35-1,4-2.58,7.36.15,11.11.8,1.1,2.68,0,1.84-1.08-4.34-6,2.59-11.65,4.92-16.79A13.19,13.19,0,0,0,305.54,304.08Z"></path><path class="cls-14" d="M332.2,291c-9.13-1.61-15.34,5.47-14.77,14.32a33.19,33.19,0,0,0,1.23,6.55c.41,1.54,1.47,4.15,1.21,5.68a8.67,8.67,0,0,1-5.23,6.11c-4,1.88-6.51,4.12-7.7,8.47a1.07,1.07,0,0,0,2.06.56c2.11-7.73,12.92-6.62,13-15.14,0-4.16-2.18-8.06-2.43-12.23-.44-7.28,4.31-13.62,12.08-12.25C333,293.29,333.56,291.22,332.2,291Z"></path><path class="cls-3" d="M340.37,281.24c-3.55-6.52-10-8.05-16.28-6.11a21.16,21.16,0,0,0-2.53,1.24c-15.87,11.75-4.61,38.28-2.16,38.08,8.05-.68,7.25-5.37,9.94-18.72A12.55,12.55,0,0,1,342,285.1,23.66,23.66,0,0,0,340.37,281.24Z"></path><path class="cls-14" d="M336.89,276.92a13.22,13.22,0,0,0-13.52,6.49c-5.8,9.69-4.46,21-3.69,31.69.09,1.35,2.24,1.35,2.13,0-.56-7.73-1.65-15.38.46-23,1-3.72,2.27-7.87,5.25-10.54a11,11,0,0,1,11.93-1.71l-.8-1.1C338.06,278.16,337.47,277.54,336.89,276.92Z"></path></g><g id="person"><path class="cls-15" d="M183.2,333.56C167.33,342.81,151,351,135.08,360.23l54.33,29.43,40.82-25.85Z"></path><path class="cls-5" d="M216.65,344.37c0,.27,5.66,13.2,6.94,14s5.19-1.72,6.54-.3,3.06,4.47.09,5.73-11.8,2.47-13.43,1.78a28.59,28.59,0,0,1-4.36-3s-.83-6.93-1.76-6-.59,8.41-1.25,8.63a7.14,7.14,0,0,1-2.59-.38l.85-21.84"></path><path class="cls-5" d="M192.12,332.76c0,.27,6.13,13,7.44,13.75s5.12-1.91,6.52-.53,3.22,4.35.3,5.74S194.67,354.6,193,354a28.32,28.32,0,0,1-4.47-2.79s-1.07-6.89-2-5.91-.29,8.44-.94,8.67a7.32,7.32,0,0,1-2.59-.28V331.79"></path><path class="cls-16" d="M213.71,225.63s18,92.51,16.56,114c0,0-3.58,14.33-34.61,9.55,0,0-2.68-10.74-1.49-28.95s4.43-94.6,4.43-94.6Z"></path><path class="cls-16" d="M210.43,335l-4.67-110.39-18.68-1.73S179,251.29,180.73,265s-2.09,31.93-3,41.49c-.8,8.56-1.13,23.39,1.84,30C189.61,339.38,200.44,338.4,210.43,335Z"></path><path class="cls-6" d="M194.35,343.93a183,183,0,0,1-3.13-21,74.33,74.33,0,0,1-.07-10.34,101.69,101.69,0,0,1,1.52-10.56,76.94,76.94,0,0,0,.86-19c-.49-6.51-1.48-13-2.1-19.45a70,70,0,0,1,.71-21.95c.21-.94-1.23-1.35-1.43-.41-2.89,13-.11,26.12,1.11,39.1a78,78,0,0,1-.37,20.14c-.54,3.26-1.21,6.51-1.56,9.8a67.26,67.26,0,0,0-.24,10.62,170.36,170.36,0,0,0,3.3,23.36C193.08,345.27,194.57,344.88,194.35,343.93Z"></path><path class="cls-11" d="M195.5,178c1.87-.75,30.32-34.57,31.7-33.94s9.08,11.5,5.16,17.45-30.12,33.11-30.12,33.11"></path><polyline class="cls-14" points="233.91 203.68 227.57 200.98 233.08 167.43 251.21 175.9 249.08 191.69 246.43 207.88 233.91 203.68 235.89 201.15"></polyline><path class="cls-17" d="M201.48,177.43c1.75.65,9.39.65,11.89,7.78a160.41,160.41,0,0,1,4.39,16.11l18.37-10.42s1.1,16.11-1.1,20.27-12.88,13.16-21.66,8c0,0,.82,6.3,0,8.22s-21,4.24-25.67-1.79-1.46-34.66-1.46-34.66"></path><path class="cls-4" d="M235.82,199.06c-.3-2.31-.38-4.64-.61-7a11.39,11.39,0,0,0,1.74-1.66c.63-.67,1.23-1.34,1.82-2.08.38-.76.77-1.53,1.18-2.29l.46-1c.58-1.19,1.1-3.08,2.47-3.62a1.81,1.81,0,0,1,2.46,1.34c.23,2.08-3.32,6.54.87,6.42a14.29,14.29,0,0,1,2.36.07c1.6.21,3.08,1,2.49,2.83a2.73,2.73,0,0,1-.37.72,2.16,2.16,0,0,1,1.41,2.7l-.06.16a2.39,2.39,0,0,1-1.35,1.35,1.51,1.51,0,0,1,0,2,2.3,2.3,0,0,1-1.47.91,2,2,0,0,1-.1.94c-.52,1.42-2.4,1.92-3.72,2.16a43.1,43.1,0,0,1-8.94.24C236.19,201.92,236,200.5,235.82,199.06Z"></path><path class="cls-4" d="M243.32,140.43c1.83,1.68,1.62,4.14,1,6.57a.84.84,0,0,0-.5.19,38.53,38.53,0,0,1-4.4,2.68,27.91,27.91,0,0,1-3.69,1.69,10.31,10.31,0,0,0-3.53,2.11,54,54,0,0,0-2.53-6.5c4.34-4,8.06-6.89,11.64-11.56.39-.51,1.27-2.13,1.79-2.06a1.17,1.17,0,0,1,1.33,1,.17.17,0,0,1,0,.07c.31,2.08-1.34,3.79-2.68,5.26C241.75,139.94,243.39,140.37,243.32,140.43Z"></path><path class="cls-4" d="M242.64,142.25c-.44-.38.19-1,.63-.64a5.73,5.73,0,0,1,1,1,4.9,4.9,0,0,1,1,1.76,3.78,3.78,0,0,1,.06.47h0a.34.34,0,0,1,0,.2,1.16,1.16,0,0,1-.26.9c-.45.42-1,0-1.35-.38a4.45,4.45,0,0,1-.88-1.75c-.14-.49-.39-1.09,0-1.51Z"></path><path class="cls-16" d="M233.36,153.07a7.51,7.51,0,0,1,4-2.15,6.83,6.83,0,0,0,3.05-1.08,4.57,4.57,0,0,0,1.26-1.5.35.35,0,0,0,.32.3,2.15,2.15,0,0,0,2.49-1.35,2.91,2.91,0,0,0,0-.59,1.82,1.82,0,0,0,1.53-1.47,3.41,3.41,0,0,0-.46-1.82,16.31,16.31,0,0,0-1.28-2.31h0a1.32,1.32,0,0,0-.68-1.27c-1.52-1.1-3.71,1.17-4.74,2.07-.44.37.2,1,.63.63s1.05-.88,1.6-1.27l.07-.08a2.59,2.59,0,0,1,.95-.68,1,1,0,0,1,1.21.59.86.86,0,0,1,0,.27,1.28,1.28,0,0,1-.48.9c-.11.13-.26.28-.43.51a8.82,8.82,0,0,0-.61.76c-.79,1.25-.35,2.53-.79,3.86-.74,2.23-2.78,2.29-4.68,2.8a8.19,8.19,0,0,0-3.7,2.22.47.47,0,1,0,.66.66Zm9.83-9.71h0a12.14,12.14,0,0,0,.78-1.1c.24.4.47.82.68,1.25a3.55,3.55,0,0,1,.53,1.25c0,.16-.27,1.34-.69,1.14h-.11A13.69,13.69,0,0,0,243.19,143.36Zm-1.34,4.54c.4-1.14,0-2.39.56-3.49l.14-.26a13.6,13.6,0,0,1,.76,1.75c.35,1,.18,2.09-1.13,1.92a.42.42,0,0,0-.29,0Z"></path><path class="cls-4" d="M212.16,154.74c1.14.73,1.1,18.87-4,21.11-6.71,2.93-12.15-5-12.78-9.33S198.86,146.33,212.16,154.74Z"></path><path class="cls-16" d="M176.62,184a7.87,7.87,0,0,0,2.41-2.43,10.85,10.85,0,0,0,.43-3.72c.17-3.06,1-6.31,3.8-8,1.8-1.08,4.36-.14,5.86-1.77,1.71-1.87,1.14-4.61,1.35-6.89,1.2-11.86,18.67-14,24.3-4.35a7,7,0,0,1-2.06,9.4,6.76,6.76,0,0,1-2.78,1.08c-1.45.23-2.86.19-3.49,1.76-.92,2.34.78,4.76,1.63,6.85,1.34,3.24,1.73,7.89-1.44,10.24a16.08,16.08,0,0,1-5.1,1.88,4,4,0,0,0-2,1.12c-.85,1.06-.31,2.52-.14,3.72a5.51,5.51,0,0,1,0,1.9,4,4,0,0,1-1,3.37c-1.9,2.31-5.37,2.38-8.14,2.25A25.39,25.39,0,0,1,181,198c-2.57-1.16-5.75-3-7.06-5.57C172.41,189.33,174.18,186.05,176.62,184Z"></path><path class="cls-18" d="M206.36,200a38.81,38.81,0,0,0,1.69,10.91,13.06,13.06,0,0,0,5.87,7.74c.58.35,0,1.25-.52.9a13.69,13.69,0,0,1-6.08-7.58,38.15,38.15,0,0,1-2-12,.52.52,0,1,1,1,0Z"></path></g></svg>