<svg transform="scale(2)" version="1.1" id="Layer_1" xmlns="http://www.w3.org/2000/svg" xmlns:xlink="http://www.w3.org/1999/xlink" x="0px" y="0px" viewBox="0 0 500 500" xml:space="preserve" class="show_show__wrapper__graphic__5Waiy "><title>React</title><style type="text/css">
	.st0{fill:#ED6128;}
	.st1{fill:#E27801;}
	.st2{fill:#E5913E;}
	.st3{fill:#FFD64C;}
	.st4{fill:#FE9B00;}
	.st5{fill:#E88400;}
	.st6{fill:url(#SVGID_1_);}
	.st7{fill:#B7340B;}
	.st8{fill:#FFCE88;}
	.st9{fill:#68E1FD;}
	.st10{fill:url(#SVGID_00000096053755953684831590000003113638696640346299_);}
	.st11{fill:url(#SVGID_00000115511910360992081180000014812171099779349438_);}
</style><path class="st0" id="field" d="M20.7,308l226.1,130.2c3.6,2,8,2,11.6,0l220.8-125.3c5.6-3.3,7.5-10.5,4.2-16.1
	c-1-1.7-2.5-3.2-4.2-4.2L249.3,161.1c-3.6-2.1-8.1-2.1-11.8,0L20.7,287.8c-5.6,3.3-7.4,10.5-4.1,16.1C17.6,305.6,19,307,20.7,308z"></path><g id="coin2"><polyline class="st1" points="175,67.8 186.8,61.6 231.1,132.3 227.6,143.3 217.9,148.3 222.4,142.5 	"></polyline><path class="st1" d="M230.4,91.4c10.9,22.7,9.4,46.2-3.6,52.3s-34-7.5-44.5-30.1s-8.5-45.9,4.6-52S220.3,70.4,230.4,91.4z"></path><path class="st2" d="M203.8,74.7l9.8-5.4c0,0,10.9,9.3,14.6,17.8l-9.9,5.5"></path><path class="st3" d="M220.4,96.6c10.9,22.7,9.4,46.3-3.6,52.3s-34-7.5-44.5-30.1s-8.5-45.9,4.6-52S210.3,75.6,220.4,96.6z"></path><ellipse class="st4" transform="matrix(0.9068 -0.4215 0.4215 0.9068 -27.4548 92.8216)" cx="196.2" cy="108.5" rx="21.3" ry="37"></ellipse><path class="st5" d="M203.9,140.8c-12.6-4.5-20.1-16.6-25.1-28.3s-8.5-27.3,1.2-37.2c-10.1,5.4-11.6,24-3.1,42.2
		c8.6,18.5,24.2,29.5,34.9,24.5l0.5-0.3C209.5,142.1,206.6,141.7,203.9,140.8z"></path><polygon class="st0" points="189.1,113 192.6,110.9 192.6,115.2 189.2,117.2 	"></polygon><polygon class="st0" points="188.7,117 192.1,114.9 192.6,115.2 189.2,117.2 	"></polygon><polygon class="st0" points="186,111.3 189.5,109.3 192.1,110.6 188.6,112.7 	"></polygon><polygon class="st0" points="188.6,112.7 192.1,110.6 192.6,110.9 189.1,113 	"></polygon><polygon class="st0" points="191.4,115.1 194.8,113 194.9,116.4 191.4,118.4 	"></polygon><polygon class="st0" points="194.9,120.2 198.3,118.2 198.3,121.8 194.9,123.8 	"></polygon><polygon class="st0" points="191.4,115.1 194.8,113 198.3,114.8 194.8,116.9 	"></polygon><polygon class="st0" points="194.8,116.9 198.3,114.8 198.3,118.2 194.9,120.2 	"></polygon><polygon class="st0" points="197.4,118.3 200.9,116.2 200.9,119.6 197.5,121.6 	"></polygon><polygon class="st0" points="200.9,123.3 204.4,121.3 204.4,125 201,127 	"></polygon><polygon class="st0" points="192.9,108.3 196.4,106.2 196.5,113 193,115.1 	"></polygon><polygon class="st0" points="197.4,118.3 200.9,116.2 204.4,118 200.9,120.1 	"></polygon><polygon class="st0" points="193,115.1 196.5,113 203,116.4 199.5,118.5 	"></polygon><polygon class="st0" points="200.9,120.1 204.4,118 204.4,121.3 200.9,123.3 	"></polygon><path class="st0" d="M205,116.6l-3.4,2.1c-0.3,0.2-0.6,0.2-0.9,0.2c-0.4,0-0.8-0.1-1.1-0.3l3.4-2.1c0.3,0.2,0.7,0.3,1.1,0.3
		C204.4,116.8,204.7,116.7,205,116.6z"></path><polygon class="st0" points="189,91.6 192.4,89.5 192.4,93.7 189,95.8 	"></polygon><polygon class="st0" points="188.5,95.5 191.9,93.4 192.4,93.7 189,95.8 	"></polygon><polygon class="st0" points="185.2,89.6 188.7,87.5 192.4,89.5 189,91.5 	"></polygon><polygon class="st0" points="189,91.5 192.4,89.5 192.4,89.5 189,91.6 	"></polygon><polygon class="st0" points="192.9,97.9 196.3,95.8 196.4,102.3 192.9,104.3 	"></polygon><polygon class="st0" points="192.9,104.3 196.4,102.3 202.2,105.3 198.8,107.4 	"></polygon><polygon class="st0" points="191.2,92.7 194.6,90.7 194.7,93 191.2,95.1 	"></polygon><polygon class="st0" points="189,91.6 192.4,89.5 194.6,90.7 191.2,92.7 	"></polygon><path class="st0" d="M198.8,107.4l3.5-2.1c0.6,0.4,1.3,0.4,1.9,0.1l-3.4,2.1C200.1,107.9,199.4,107.8,198.8,107.4z"></path><polygon class="st0" points="191.2,95.1 194.7,93 198.1,94.8 194.7,96.9 	"></polygon><path class="st0" d="M208.8,121.4l-3.5,2.1c0.4-0.2,0.7-0.6,0.9-1c0.4-0.8,0.6-1.7,0.6-2.6c0-1.7-0.4-3.3-1.2-4.8l3.4-2.1
		c0.8,1.5,1.1,3.1,1.2,4.8c0,0.9-0.1,1.8-0.6,2.6C209.4,120.8,209.1,121.1,208.8,121.4z"></path><path class="st0" d="M202.5,111.2l3.4-2.1c1.3,1.1,2.3,2.5,3.1,4l-3.4,2.1C204.9,113.6,203.8,112.3,202.5,111.2z"></path><polygon class="st0" points="194.7,94.5 198.1,92.5 198.1,94.8 194.7,96.9 	"></polygon><polygon class="st0" points="194.7,94.5 198.1,92.5 200.7,93.8 197.3,95.9 	"></polygon><polygon class="st0" points="197.3,95.9 200.7,93.8 200.7,96.2 197.3,98.3 	"></polygon><polygon class="st0" points="197.3,98.3 200.7,96.2 204.2,98 200.7,100.1 	"></polygon><polygon class="st0" points="194.6,89.7 198.1,87.7 198.1,92.5 194.7,94.5 	"></polygon><polygon class="st0" points="191.2,87.9 194.6,85.8 198.1,87.7 194.6,89.7 	"></polygon><polygon class="st0" points="200.7,97.7 204.2,95.7 204.2,98 200.7,100.1 	"></polygon><path class="st0" d="M207.6,108.8l-3.4,2.1c0.3-0.2,0.6-0.5,0.8-0.8c0.6-0.9,0.9-2,0.8-3.1c0-0.9-0.1-1.7-0.4-2.6
		c-0.3-0.9-0.6-1.8-1.1-2.6c-0.5-0.8-1-1.6-1.6-2.3c-0.6-0.6-1.2-1.2-1.9-1.6l3.4-2.1c0.7,0.4,1.4,1,1.9,1.6
		c0.6,0.7,1.2,1.5,1.6,2.3c0.4,0.8,0.8,1.7,1.1,2.6c0.2,0.8,0.4,1.7,0.4,2.6c0.1,1.1-0.2,2.2-0.8,3.1
		C208.2,108.3,207.9,108.6,207.6,108.8z"></path><polygon class="st0" points="197.2,91.1 200.7,89.1 204.1,90.9 200.7,92.9 	"></polygon><polygon class="st3" points="189.1,113 189.2,117.2 188.7,117 185.4,115.3 186,111.3 188.6,112.7 	"></polygon><polygon class="st3" points="194.8,116.9 194.9,120.2 194.9,123.8 191.4,122 191.4,118.4 191.4,115.1 	"></polygon><polygon class="st3" points="200.9,120.1 200.9,123.3 201,127 197.5,125.2 197.5,121.6 197.4,118.3 	"></polygon><polygon class="st3" points="189,91.5 189,91.6 189,95.8 188.5,95.5 185.9,94.2 185.2,89.6 	"></polygon><polygon class="st3" points="194.6,89.7 194.7,94.5 194.7,96.9 191.2,95.1 191.2,92.7 191.2,87.9 	"></polygon><path class="st3" d="M205.6,115.1c0.8,1.5,1.1,3.1,1.2,4.8c0.1,0.9-0.1,1.8-0.6,2.6c-0.3,0.6-0.9,1-1.6,1.2c-0.8,0.2-1.6,0.2-2.3,0
		c-0.5-0.1-1-0.2-1.5-0.4V120l-3.4-1.8v3.4l-2.6-1.4v-3.4l-3.5-1.8v3.4l-2.8-1.5l0.5,0.3v-4.3l-0.5-0.3l-0.2-17.1l0.5,0.3v-4.2
		l2.2,1.2v2.3l3.4,1.8v-2.4l2.6,1.4v2.3l3.4,1.8v-2.3c0.7,0.4,1.4,1,1.9,1.6c0.6,0.7,1.2,1.5,1.6,2.3c0.5,0.8,0.8,1.7,1.1,2.7
		c0.2,0.8,0.4,1.7,0.4,2.6c0.1,1.1-0.2,2.2-0.8,3.1c-0.5,0.8-1.4,1.3-2.4,1.2C203.9,112.3,204.9,113.6,205.6,115.1z M202.2,117.9
		c0.2-0.4,0.2-0.8,0.2-1.2c0-0.5-0.1-1-0.2-1.5c-0.1-0.5-0.3-1-0.6-1.5c-0.2-0.4-0.5-0.8-0.8-1.2c-0.3-0.3-0.7-0.6-1.1-0.8l-6.7-3.6
		v6.8l6.5,3.4c0.3,0.2,0.7,0.3,1.1,0.3c0.3,0,0.6-0.1,0.9-0.2C201.8,118.4,202,118.1,202.2,117.9 M192.8,97.8v6.5l5.9,3.1
		c0.6,0.4,1.3,0.4,1.9,0.1c0.6-0.5,0.9-1.2,0.8-2c0-1-0.3-1.9-0.7-2.7c-0.4-0.8-1-1.4-1.8-1.8L192.8,97.8"></path><polygon class="st3" points="200.7,92.9 200.7,97.7 200.7,100.1 197.3,98.3 197.3,95.9 197.2,91.1 	"></polygon><polygon class="st0" points="200.7,92.9 204.1,90.9 204.2,95.7 200.7,97.7 	"></polygon></g><g id="tab"><linearGradient id="SVGID_1_" gradientUnits="userSpaceOnUse" x1="195.4863" y1="-1650.7694" x2="167.7263" y2="-1610.0394" gradientTransform="matrix(1 0 0 1 0 1954.76)"><stop offset="1.000000e-02" style="stop-color: rgb(140, 98, 57);"></stop><stop offset="1" style="stop-color: rgb(237, 97, 40); stop-opacity: 0;"></stop></linearGradient><path class="st6" d="M110.6,265l-81.3,48.1l197,112.6l81.9-52.3C308.2,373.5,143.2,247.8,110.6,265z"></path><path class="st7" d="M390.9,311.5L213.6,209.8c-3.9-2.2-8.6-2.2-12.4,0l-94.6,55.4c-3.5,2.1-4.6,6.6-2.5,10.1
		c0.6,1,1.5,1.9,2.5,2.5L282,379.3c5.1,3,11.5,2.9,16.6-0.1l92.4-55.1c3.5-2.1,4.5-6.7,2.4-10.1C392.8,313,391.9,312.1,390.9,311.5
		L390.9,311.5z"></path><path class="st8" d="M390.9,303.5L213.6,201.8c-3.9-2.2-8.6-2.2-12.4,0l-94.6,55.4c-3.5,2.1-4.6,6.6-2.5,10.1
		c0.6,1,1.5,1.9,2.5,2.5L282,371.3c5.1,3,11.5,2.9,16.6-0.1l92.4-55.1c3.5-2.1,4.5-6.7,2.4-10.1C392.8,305,391.9,304.1,390.9,303.5
		L390.9,303.5z"></path><path class="st9" d="M218,214.5c-1,0.3-90.5,52.6-90.5,52.6L277,354.7l90.4-52.2L218,214.5z"></path><path class="st7" d="M315.6,346.4c-1.1-0.6-1.5-2-0.8-3.1c0,0,0,0,0,0c0-0.1,0.1-0.1,0.1-0.2c1.3-1.3,2.8-2.4,4.4-3.3
		c1.5-1,3.1-1.8,4.7-2.7l12-7.1l9.9-5.8c1.3-0.8,2.9-1,4.4-0.5c1,0.4,1.9,1,2.6,2c0.6,1,0.3,2.3-0.7,2.9l-0.2,0.1l-18.3,10.6
		l-7.9,4.5l-4.5,2.6c-1.4,0.8-3.1,1-4.6,0.5C316.2,346.8,315.9,346.6,315.6,346.4z"></path><linearGradient id="SVGID_00000022545399897340258760000004960106279031959196_" gradientUnits="userSpaceOnUse" x1="235.7189" y1="-1669.9207" x2="219.2589" y2="-1643.5908" gradientTransform="matrix(1 0 0 1 0 1954.76)"><stop offset="1.000000e-02" style="stop-color: rgb(140, 98, 57);"></stop><stop offset="1" style="stop-color: rgb(237, 97, 40); stop-opacity: 0;"></stop></linearGradient><polyline points="210.1,272.6 158.2,299.7 
		236.3,344.8 289,308.8 	" style="fill: url(&quot;#SVGID_00000022545399897340258760000004960106279031959196_&quot;);"></polyline><path class="st1" d="M280.8,313.3l0.5,0.3l3.9-2l0,0c-0.4,0.2-0.8,0.4-1.2,0.6C282.9,312.7,281.8,313,280.8,313.3z"></path><path class="st1" d="M272.9,245.8c1,1.7,1.9,3.4,2.7,5.1c11.5,24,12.4,48.6,3.3,61.2l1.9,1.1c1.1-0.3,2.1-0.7,3.1-1.1
		c0.4-0.2,0.8-0.4,1.2-0.6c15.8-8.8,17.4-38.5,3.5-67.4c-0.9-1.9-1.9-3.7-2.9-5.6L272.9,245.8L272.9,245.8z"></path><path class="st1" d="M271.8,220.2c-1.5-1.5-3-2.9-4.6-4.3C268,216.6,269.7,218.2,271.8,220.2z"></path><path class="st1" d="M225.3,210.6c8.8-0.9,19.2,3.8,28.7,11.9l0,0l12.8-7c-11.8-10-24.8-14.6-34.7-10c-0.6,0.3-1.1,0.5-1.6,0.9
		C228.5,207.5,226.8,208.9,225.3,210.6z"></path><path class="st2" d="M254,222.5c7.6,6.6,14,14.5,18.9,23.3l0,0l12.7-7.2l0,0c-2.9-6.8-9.3-13.9-13.9-18.4c-2.1-2.1-3.8-3.6-4.6-4.3
		l-0.5-0.4l0,0L254,222.5L254,222.5z"></path><path class="st3" d="M218.1,275.9l-0.3-0.7c-0.2-0.5-0.4-1-0.6-1.5l-0.3-0.9c-0.2-0.4-0.3-0.9-0.5-1.3s-0.2-0.7-0.4-1
		s-0.3-0.8-0.4-1.2s-0.2-0.7-0.3-1.1s-0.2-0.8-0.4-1.1s-0.2-0.8-0.3-1.1s-0.2-0.7-0.3-1.1s-0.2-0.8-0.3-1.2s-0.2-0.7-0.2-1
		s-0.2-0.8-0.3-1.2s-0.1-0.6-0.2-1s-0.2-0.8-0.2-1.2s-0.1-0.6-0.2-0.9s-0.1-0.8-0.2-1.3s-0.1-0.6-0.1-0.8s-0.1-0.9-0.2-1.3
		c0-0.3,0-0.5-0.1-0.8c-0.1-0.4-0.1-0.9-0.1-1.3c0-0.4,0-0.5,0-0.7c0-0.5,0-0.9-0.1-1.4v-4.5c0-0.5,0-1,0.1-1.5v-0.5
		c0-0.5,0.1-1,0.1-1.5v-0.4c0-0.5,0.1-1,0.2-1.5v-0.3c0.1-0.5,0.2-0.9,0.3-1.5v-0.3c0.1-0.5,0.2-1,0.3-1.5v-0.2
		c0.1-0.5,0.2-0.9,0.4-1.4v-0.2c0.1-0.5,0.3-0.9,0.5-1.4v-0.1c0.2-0.5,0.4-0.9,0.5-1.3v-0.1c0.2-0.4,0.4-0.9,0.6-1.3v-0.1
		c0.2-0.4,0.4-0.9,0.7-1.2l0,0c0.2-0.4,0.5-0.8,0.8-1.2l0,0c0.3-0.4,0.6-0.8,0.8-1.1l0,0c0.3-0.4,0.6-0.7,0.9-1.1l0,0
		c0.3-0.3,0.6-0.7,1-1l0,0c1.2-1.1,2.6-2.1,4.2-2.8c13.9-6.4,34.2,7.8,45.4,31.9c9.8,21,9.3,42.5-0.2,51.9l9.7,5.6
		c9.1-12.7,8.3-37.3-3.2-61.2c-0.9-1.8-1.7-3.5-2.7-5.1c-4.9-8.8-11.3-16.7-18.9-23.3c-9.5-8.1-19.9-12.8-28.7-11.9
		c-2,0.2-3.9,0.7-5.7,1.5l-0.5,0.2c-0.8,0.4-1.5,0.8-2.2,1.2l-0.2,0.1c-13.6,8.7-16.1,33.5-6.6,59l8.8,5.1
		C218.6,277,218.5,276.4,218.1,275.9z"></path><path class="st4" d="M212.9,239.1c0.1-0.5,0.2-1,0.3-1.5C213.1,238.1,213,238.6,212.9,239.1z"></path><path class="st4" d="M212.6,240.8c0.1-0.5,0.2-1,0.3-1.5C212.7,239.8,212.6,240.3,212.6,240.8z"></path><path class="st4" d="M213.3,237.4c0.1-0.5,0.3-0.9,0.4-1.4C213.5,236.5,213.4,237,213.3,237.4z"></path><path class="st4" d="M218.1,275.9l-0.3-0.7L218.1,275.9z"></path><path class="st4" d="M212.3,242.5c0-0.5,0.1-1,0.2-1.5C212.4,241.6,212.4,242.1,212.3,242.5z"></path><path class="st4" d="M213.8,235.8c0.1-0.5,0.3-0.9,0.5-1.4C214,234.9,213.9,235.4,213.8,235.8z"></path><path class="st4" d="M216.2,230.1c0.2-0.4,0.5-0.8,0.8-1.2C216.7,229.3,216.5,229.7,216.2,230.1z"></path><path class="st4" d="M217,228.9c0.3-0.4,0.6-0.8,0.8-1.1C217.6,228.1,217.3,228.5,217,228.9z"></path><path class="st4" d="M217.2,273.6l-0.3-0.9L217.2,273.6z"></path><path class="st4" d="M214.9,232.9c0.2-0.4,0.4-0.9,0.6-1.3C215.2,232,215,232.4,214.9,232.9z"></path><path class="st4" d="M215.5,231.4c0.2-0.4,0.4-0.8,0.7-1.2C216,230.6,215.7,231,215.5,231.4z"></path><path class="st4" d="M214.3,234.3c0.2-0.5,0.4-0.9,0.5-1.3C214.6,233.4,214.4,233.8,214.3,234.3z"></path><path class="st4" d="M214.9,267c-0.1-0.4-0.2-0.8-0.3-1.1C214.7,266.2,214.8,266.6,214.9,267z"></path><path class="st4" d="M214.3,264.8c-0.1-0.4-0.2-0.8-0.3-1.2C214.1,264,214.2,264.4,214.3,264.8z"></path><path class="st4" d="M212.3,254.1c0-0.4-0.1-0.9-0.1-1.3C212.2,253.2,212.3,253.7,212.3,254.1z"></path><path class="st4" d="M212.6,256.2c0-0.4-0.1-0.9-0.2-1.3C212.4,255.3,212.5,255.8,212.6,256.2z"></path><path class="st4" d="M216.4,271.4l-0.4-1L216.4,271.4z"></path><path class="st4" d="M213.8,262.6l-0.3-1.2C213.6,261.8,213.7,262.2,213.8,262.6z"></path><path class="st4" d="M212,246.2c0-0.5,0-1,0.1-1.5C212.1,245.3,212.1,245.7,212,246.2z"></path><path class="st4" d="M212.9,258.3c0-0.4-0.1-0.8-0.2-1.3C212.8,257.5,212.8,257.9,212.9,258.3z"></path><path class="st4" d="M213.3,260.4c-0.1-0.4-0.2-0.8-0.2-1.2C213.1,259.6,213.2,260,213.3,260.4z"></path><path class="st4" d="M212.1,252.1c0-0.5,0-0.9-0.1-1.4C212.1,251.2,212.1,251.6,212.1,252.1z"></path><path class="st4" d="M212.1,244.4c0-0.5,0.1-1,0.1-1.5C212.2,243.4,212.2,243.9,212.1,244.4z"></path><path class="st4" d="M215.6,269.2c-0.1-0.4-0.2-0.7-0.3-1.1C215.4,268.5,215.5,268.8,215.6,269.2z"></path><path class="st4" d="M212,250.1v-1.4C212,249.2,212,249.6,212,250.1z"></path><path class="st4" d="M212,248.1v-1.4C212,247.2,212,247.7,212,248.1z"></path><path class="st4" d="M218.8,226.7c0.3-0.3,0.6-0.7,1-1C219.5,226,219.1,226.4,218.8,226.7z"></path><path class="st4" d="M256.8,285.2l-0.2,0.2L256.8,285.2z"></path><path class="st4" d="M218.8,226.7c-0.3,0.3-0.6,0.7-0.9,1.1C218.2,227.4,218.5,227,218.8,226.7z"></path><path class="st4" d="M252.2,276.3c0-0.4-0.1-0.7-0.2-1.1c-0.2-0.6-0.4-1.2-0.7-1.8c-0.3-0.5-0.7-1-1.1-1.5
		c-0.4-0.4-0.8-0.8-1.4-1.1l-4.2-2.2v3.7L252.2,276.3z"></path><path class="st4" d="M244.4,258.3l6.5,3.4c-0.1-0.9-0.4-1.9-0.9-2.7c-0.5-1-1.3-1.8-2.3-2.3l-3.3-1.8L244.4,258.3z"></path><path class="st4" d="M269.4,254.8c-11.2-24.1-31.5-38.3-45.4-31.9c-1.5,0.7-2.9,1.7-4.2,2.8c1-0.9,2.2-1.8,3.4-2.4
		c-12.7,12.8-8.1,33.2-1.6,48.3c1.6,3.6,3.3,7.2,5.2,10.7l42.4,24.4C278.7,297.2,279.1,275.8,269.4,254.8z M256,285.9l0.1-0.1
		c-0.3,0.2-0.6,0.3-0.9,0.4l-0.4,0.1v1.5l-4.5,2.7l-4.5-2.4v-3.8l-3.4,2L238,284v-4.7l-3.6-1.9l0,0l-4.3-2.2l0.8-5.1l3.3-2
		l-0.1-18.5l-3.4-1.8l-0.9-6l4.5-2.7l3.2,1.7v-1.1l4.5-2.7l4.5,2.4v3.8l3.4-2l4.5,2.4v6.2c1,0.5,1.8,1.2,2.5,2.1
		c0.8,0.9,1.5,2,2.1,3.1c0.6,1.1,1,2.2,1.4,3.4c0.3,1.1,0.5,2.2,0.5,3.3c0.1,1.4-0.3,2.8-1,4c-0.3,0.4-0.6,0.8-1.1,1l-1.6,0.9
		c1.4,1.3,2.6,2.9,3.5,4.7c1,1.9,1.5,4.1,1.5,6.2c0.1,1.2-0.2,2.3-0.7,3.3c-0.3,0.5-0.7,0.9-1.2,1.2L256,285.9z"></path><path class="st5" d="M223.2,223.3c-1.2,0.7-2.4,1.5-3.4,2.4l0,0c-0.4,0.3-0.7,0.6-1,1l0,0c-0.3,0.3-0.6,0.7-0.9,1.1l0,0
		c-0.3,0.4-0.6,0.7-0.8,1.1l0,0c-0.3,0.4-0.5,0.8-0.8,1.2l0,0c-0.2,0.4-0.5,0.8-0.7,1.2v0.1c-0.2,0.4-0.4,0.9-0.6,1.3v0.1l-0.5,1.3
		v0.1c-0.2,0.4-0.3,0.9-0.5,1.4v0.2c-0.1,0.5-0.3,0.9-0.4,1.4v0.2c-0.1,0.5-0.2,0.9-0.3,1.5v0.3c-0.1,0.5-0.2,1-0.3,1.5v0.3
		c0,0.5-0.1,0.9-0.2,1.5v0.4c0,0.5-0.1,0.9-0.1,1.5v0.5c0,0.5,0,1-0.1,1.5v4.5c0,0.5,0,0.9,0.1,1.4c0,0.2,0,0.5,0,0.7
		c0,0.4,0,0.9,0.1,1.3c0.1,0.4,0,0.5,0.1,0.8c0.1,0.4,0.1,0.9,0.2,1.3c0.1,0.4,0.1,0.6,0.1,0.8s0.1,0.8,0.2,1.3s0.1,0.6,0.2,0.9
		s0.1,0.8,0.2,1.2s0.1,0.6,0.2,1s0.2,0.8,0.3,1.2s0.2,0.7,0.2,1s0.2,0.8,0.3,1.2l0.3,1.1c0.1,0.4,0.2,0.8,0.3,1.1s0.2,0.8,0.4,1.1
		s0.2,0.7,0.3,1.1s0.3,0.8,0.4,1.2s0.2,0.7,0.4,1s0.3,0.9,0.5,1.3l0.3,0.9c0.2,0.5,0.4,1,0.6,1.5l0.3,0.7c0.3,0.6,0.6,1.2,0.8,1.9
		l7.9,4.5c-1.9-3.5-3.7-7-5.2-10.7C215.1,256.4,210.5,236.1,223.2,223.3z"></path><polygon class="st0" points="234.4,277.4 234.4,277.4 235.1,277.8 	"></polygon><polygon class="st0" points="234.4,268.1 231,270.1 234.4,271.9 	"></polygon><polygon class="st0" points="237.9,275 237.9,275 238,279.3 	"></polygon><polygon class="st0" points="242.5,281.7 242.5,286.4 245.9,284.4 245.9,283.5 	"></polygon><path class="st0" d="M252.2,286.3c-0.6-0.1-1.3-0.3-1.9-0.6v4.8l4.5-2.7v-1.5C254,286.5,253.1,286.5,252.2,286.3z"></path><polygon class="st0" points="244.6,272.3 244.5,268.5 240,266.1 240.1,275 	"></polygon><path class="st0" d="M250.8,279.7l-0.2,0.1L250.8,279.7z"></path><path class="st0" d="M252.2,277.2V277c0-0.3,0-0.5,0-0.8l-7.6-4l-4.5,2.7l8.5,4.4L252.2,277.2z"></path><path class="st0" d="M250.6,279.8l0.2-0.1c0.1,0,0.3-0.1,0.4-0.2c0.3-0.3,0.6-0.6,0.8-1c0.2-0.4,0.3-0.9,0.3-1.4l-3.7,2.2
		c0.4,0.3,1,0.4,1.5,0.4C250.2,279.9,250.4,279.8,250.6,279.8z"></path><polygon class="st0" points="237.7,242.7 237.7,240.8 234.4,239.1 229.9,241.8 234.8,244.4 	"></polygon><polygon class="st0" points="237.7,242.7 237.7,242.7 234.8,244.4 234.8,244.4 	"></polygon><polygon class="st0" points="244.4,255 239.9,252.6 240,261 244.4,258.3 	"></polygon><path class="st0" d="M244.4,258.3L240,261l7.6,4l3.4-2v-0.4c0-0.3,0-0.6,0-0.9L244.4,258.3z"></path><polygon class="st0" points="234.8,244.4 237.7,245.9 237.7,242.7 	"></polygon><path class="st0" d="M247.6,265c0.6,0.4,1.3,0.5,1.9,0.4c0.2,0,0.4-0.1,0.5-0.2c0.7-0.5,1.1-1.4,1-2.2L247.6,265z"></path><path class="st0" d="M261.8,281.9c0.5-1,0.8-2.2,0.7-3.3c0-2.2-0.5-4.3-1.5-6.2l-4.5,2.6c1,1.9,1.5,4.1,1.5,6.2
		c0.1,1.2-0.2,2.3-0.7,3.3c-0.1,0.2-0.3,0.4-0.5,0.6l-0.2,0.2c-0.1,0.1-0.3,0.2-0.5,0.4l-0.1,0.1l4.5-2.7
		C261,282.8,261.4,282.4,261.8,281.9z"></path><path class="st0" d="M254.8,269.2c-0.7,0.5-1.5,0.8-2.4,0.7c1.7,1.4,3,3.2,4,5.1l4.5-2.7c-0.9-1.8-2.1-3.4-3.5-4.7l-2.9,1.8
		C254.6,269.3,254.7,269.3,254.8,269.2z"></path><path class="st0" d="M255.6,268.4c-0.2,0.2-0.3,0.4-0.6,0.6C255.2,268.8,255.4,268.6,255.6,268.4z"></path><polygon class="st0" points="245.6,246.3 242.2,248.3 245.6,250.1 245.6,250.1 	"></polygon><polygon class="st0" points="245.6,250.1 245.6,250.1 245.6,253.1 245.6,250.1 	"></polygon><polygon class="st0" points="242.2,248.3 245.6,246.3 245.6,243.9 246.7,243.2 246.6,239.4 242.2,242.1 	"></polygon><polygon class="st0" points="246.6,239.4 242.2,237 237.7,239.7 242.2,242.1 	"></polygon><path class="st0" d="M250.1,252.5c1,0.6,1.8,1.3,2.5,2.1c0.8,0.9,1.5,2,2.1,3.1c0.6,1.1,1,2.2,1.4,3.4c0.3,1.1,0.5,2.2,0.5,3.4
		c0.1,1.4-0.3,2.8-1,4c-0.2,0.2-0.3,0.4-0.5,0.6l-0.2,0.2c-0.1,0.1-0.2,0.2-0.3,0.2l2.9-1.7l1.6-0.9c0.4-0.3,0.8-0.6,1.1-1
		c0.7-1.2,1.1-2.6,1-4c0-1.1-0.2-2.2-0.5-3.3c-0.3-1.2-0.8-2.3-1.4-3.4c-0.6-1.1-1.3-2.1-2.1-3.1c-0.7-0.9-1.6-1.6-2.6-2.2
		L250.1,252.5z"></path><polygon class="st0" points="250,246.2 254.5,243.5 250,241.2 246.7,243.2 245.6,243.9 	"></polygon><polygon class="st3" points="235.1,272.2 234.4,271.9 231,270.1 230.2,275.2 234.4,277.4 234.4,277.4 235.1,277.8 	"></polygon><polygon class="st3" points="242.4,277.3 237.9,275 238,279.3 238,284 242.5,286.4 242.5,281.7 	"></polygon><polygon class="st3" points="250.3,281.5 245.8,279.1 245.9,283.5 245.9,284.4 245.9,288.1 250.4,290.5 250.4,285.7 	"></polygon><polygon class="st3" points="234.8,244.4 234.8,244.4 229.9,241.8 230.8,247.8 234.2,249.6 234.9,249.9 	"></polygon><polygon class="st3" points="237.7,242.7 237.7,245.9 237.7,249 242.2,251.4 242.2,248.3 242.2,242.1 237.7,239.7 237.7,240.8 
		237.7,242.7 	"></polygon><path class="st3" d="M256.8,285.2c0.2-0.2,0.4-0.4,0.5-0.6c0.5-1,0.8-2.2,0.7-3.3c0-2.2-0.5-4.3-1.5-6.2c-1-2-2.3-3.7-4-5.1
		c0.9,0,1.7-0.2,2.4-0.7l0.2-0.2c0.2-0.2,0.4-0.4,0.5-0.6c0.7-1.2,1.1-2.6,1-4c0-1.1-0.2-2.2-0.5-3.3c-0.3-1.2-0.8-2.3-1.4-3.4
		c-0.6-1.1-1.3-2.1-2.1-3.1c-0.7-0.8-1.6-1.5-2.5-2.1v3.1l-4.5-2.4v-3.1l-3.4-1.9v3.1l-4.5-2.3v-3.1l-2.9-1.5v5.5l-0.7-0.4l0.1,18.5
		v3.8l0.7,0.4v5.5l-0.7-0.3l3.6,1.9V275l0,0l4.5,2.4v4.4l3.4,1.8v-4.4l4.5,2.4v4.2c0.6,0.2,1.2,0.4,1.9,0.6c0.9,0.2,1.8,0.2,2.6,0
		l0.4-0.1c0.3-0.1,0.6-0.2,0.9-0.4c0.2-0.1,0.3-0.2,0.5-0.4L256.8,285.2z M247.8,256.7c1,0.5,1.8,1.4,2.3,2.3
		c0.5,0.8,0.8,1.7,0.9,2.7c0,0.3,0,0.6,0,0.9v0.4c0.1,0.9-0.3,1.7-1,2.2c-0.2,0.1-0.3,0.2-0.5,0.2c-0.7,0.1-1.3,0-1.9-0.4l-7.6-4
		v-8.4l4.5,2.4L247.8,256.7z M240.1,275v-8.8l4.5,2.4l4.2,2.2c0.5,0.3,1,0.6,1.4,1.1c0.4,0.4,0.8,0.9,1.1,1.5
		c0.3,0.6,0.6,1.2,0.7,1.8c0.1,0.4,0.2,0.7,0.2,1.1c0,0.3,0,0.5,0,0.8v0.2c0,0.5-0.1,0.9-0.3,1.4c-0.1,0.4-0.4,0.8-0.8,1
		c-0.1,0.1-0.2,0.1-0.4,0.2l-0.2,0.1c-0.2,0-0.4,0-0.6,0c-0.5,0-1-0.2-1.5-0.4L240.1,275z"></path><polygon class="st3" points="250,246.2 245.6,243.9 245.6,246.3 245.6,250.1 245.6,250.1 245.6,253.1 250.1,255.5 250.1,252.4 	"></polygon><polygon class="st0" points="250.1,252.4 254.6,249.8 254.5,243.5 250,246.2 	"></polygon><ellipse class="st7" cx="360.6" cy="319.2" rx="3.2" ry="2.6"></ellipse><path class="st1" d="M230.4,206.4l-10.9,5.7c1.8-0.8,3.7-1.3,5.7-1.5C226.8,208.9,228.5,207.5,230.4,206.4z"></path><path class="st1" d="M216.7,213.6L216.7,213.6l0.2-0.1L216.7,213.6z"></path></g><g id="coin1"><linearGradient id="SVGID_00000026856114786588361440000007951792114790525589_" gradientUnits="userSpaceOnUse" x1="361.3923" y1="-1755.595" x2="317.0623" y2="-1701.875" gradientTransform="matrix(1 0 0 1 0 1954.76)"><stop offset="1.000000e-02" style="stop-color: rgb(140, 98, 57);"></stop><stop offset="1" style="stop-color: rgb(237, 97, 40); stop-opacity: 0;"></stop></linearGradient><path d="M340,274c11.4-7.6,30.7-27.3,41.6-35.4
		c-28.6-15.6-38.8-20.4-38.8-20.4l-97,57.1l56.1,32.1C320.3,294.5,321.4,286.3,340,274z" style="fill: url(&quot;#SVGID_00000026856114786588361440000007951792114790525589_&quot;);"></path><polyline class="st1" points="334.1,161.2 345.9,155 390.2,225.7 386.7,236.6 377,241.7 381.5,235.9 	"></polyline><path class="st1" d="M389.5,184.8c10.9,22.7,9.4,46.3-3.6,52.3s-34-7.5-44.5-30.1s-8.5-45.9,4.6-52S379.4,163.8,389.5,184.8z"></path><path class="st2" d="M362.8,168.1l9.8-5.4c0,0,10.9,9.3,14.6,17.8l-9.8,5.5"></path><path class="st3" d="M379.5,190c10.9,22.7,9.4,46.2-3.6,52.3s-34-7.5-44.5-30.1s-8.5-45.9,4.6-52S369.4,169,379.5,190z"></path><ellipse class="st4" transform="matrix(0.9068 -0.4215 0.4215 0.9068 -51.9937 168.5717)" cx="355.3" cy="201.9" rx="21.3" ry="37"></ellipse><path class="st5" d="M363,234.1c-12.5-4.5-20.1-16.6-25.1-28.3s-8.5-27.3,1.2-37.2c-10.1,5.4-11.6,24-3.1,42.2
		c8.6,18.5,24.2,29.5,34.9,24.5l0.5-0.3C368.6,235.5,365.7,235.1,363,234.1z"></path><polygon class="st0" points="348.2,206.3 351.7,204.3 351.7,208.6 348.2,210.6 	"></polygon><polygon class="st0" points="347.7,210.4 351.2,208.3 351.7,208.6 348.2,210.6 	"></polygon><polygon class="st0" points="345.1,204.7 348.6,202.6 351.2,204 347.7,206.1 	"></polygon><polygon class="st0" points="347.7,206.1 351.2,204 351.7,204.3 348.2,206.3 	"></polygon><polygon class="st0" points="350.4,208.4 353.9,206.4 353.9,209.7 350.5,211.8 	"></polygon><polygon class="st0" points="353.9,213.6 357.4,211.6 357.4,215.1 354,217.2 	"></polygon><polygon class="st0" points="350.4,208.4 353.9,206.4 357.4,208.2 353.9,210.3 	"></polygon><polygon class="st0" points="353.9,210.3 357.4,208.2 357.4,211.6 353.9,213.6 	"></polygon><polygon class="st0" points="356.5,211.6 360,209.6 360,212.9 356.5,215 	"></polygon><polygon class="st0" points="360,216.7 363.5,214.7 363.5,218.3 360,220.4 	"></polygon><polygon class="st0" points="352,201.7 355.5,199.6 355.5,206.4 352.1,208.4 	"></polygon><polygon class="st0" points="356.5,211.6 360,209.6 363.4,211.4 360,213.5 	"></polygon><polygon class="st0" points="352.1,208.4 355.5,206.4 362,209.8 358.6,211.9 	"></polygon><polygon class="st0" points="360,213.5 363.4,211.4 363.5,214.7 360,216.7 	"></polygon><path class="st0" d="M364,209.9l-3.4,2.1c-0.3,0.2-0.6,0.2-0.9,0.2c-0.4,0-0.8-0.1-1.1-0.3l3.5-2.1c0.3,0.2,0.7,0.3,1.1,0.3
		C363.5,210.2,363.8,210.1,364,209.9z"></path><polygon class="st0" points="348,184.9 351.5,182.9 351.5,187.1 348.1,189.2 	"></polygon><polygon class="st0" points="347.6,188.9 351,186.8 351.5,187.1 348.1,189.2 	"></polygon><polygon class="st0" points="344.3,182.9 347.7,180.9 351.5,182.8 348,184.9 	"></polygon><polygon class="st0" points="348,184.9 351.5,182.8 351.5,182.9 348,184.9 	"></polygon><polygon class="st0" points="352,191.2 355.4,189.2 355.4,195.6 352,197.7 	"></polygon><polygon class="st0" points="352,197.7 355.4,195.6 361.3,198.7 357.9,200.8 	"></polygon><polygon class="st0" points="350.3,186.1 353.7,184 353.7,186.4 350.3,188.4 	"></polygon><polygon class="st0" points="348,184.9 351.5,182.9 353.7,184 350.3,186.1 	"></polygon><path class="st0" d="M357.9,200.8l3.5-2.1c0.6,0.4,1.3,0.4,1.9,0.1l-3.5,2.1C359.1,201.2,358.4,201.2,357.9,200.8z"></path><polygon class="st0" points="350.3,188.4 353.7,186.4 357.2,188.2 353.7,190.3 	"></polygon><path class="st0" d="M367.8,214.8l-3.5,2.1c0.4-0.2,0.7-0.6,0.9-1c0.4-0.8,0.6-1.7,0.5-2.6c0-1.7-0.4-3.3-1.2-4.8l3.5-2.1
		c0.8,1.5,1.1,3.1,1.2,4.8c0,0.9-0.1,1.8-0.5,2.6C368.5,214.2,368.2,214.5,367.8,214.8z"></path><path class="st0" d="M361.6,204.6l3.5-2.1c1.3,1.1,2.3,2.5,3.1,4l-3.5,2.1C363.9,207,362.9,205.7,361.6,204.6z"></path><polygon class="st0" points="353.7,187.9 357.2,185.8 357.2,188.2 353.7,190.3 	"></polygon><polygon class="st0" points="353.7,187.9 357.2,185.8 359.8,187.2 356.3,189.3 	"></polygon><polygon class="st0" points="356.3,189.3 359.8,187.2 359.8,189.6 356.4,191.6 	"></polygon><polygon class="st0" points="356.4,191.6 359.8,189.6 363.3,191.4 359.8,193.5 	"></polygon><polygon class="st0" points="353.7,183.1 357.1,181 357.2,185.8 353.7,187.9 	"></polygon><polygon class="st0" points="350.2,181.3 353.7,179.2 357.1,181 353.7,183.1 	"></polygon><polygon class="st0" points="359.8,191.1 363.2,189.1 363.3,191.4 359.8,193.5 	"></polygon><path class="st0" d="M366.6,202.1l-3.5,2.1c0.3-0.2,0.6-0.5,0.8-0.8c0.6-0.9,0.9-2,0.8-3.1c0-0.9-0.1-1.7-0.4-2.6
		c-0.3-0.9-0.6-1.8-1.1-2.6c-0.4-0.8-1-1.6-1.6-2.4c-0.6-0.6-1.2-1.2-2-1.6l3.5-2.1c0.8,0.4,1.4,1,2,1.6c0.6,0.7,1.2,1.5,1.6,2.4
		c0.4,0.8,0.8,1.7,1,2.6c0.2,0.8,0.4,1.7,0.4,2.6c0.1,1.1-0.2,2.2-0.8,3.1C367.3,201.7,367,201.9,366.6,202.1z"></path><polygon class="st0" points="356.3,184.5 359.8,182.4 363.2,184.2 359.8,186.3 	"></polygon><polygon class="st3" points="348.2,206.3 348.2,210.6 347.7,210.4 344.5,208.6 345.1,204.7 347.7,206.1 	"></polygon><polygon class="st3" points="353.9,210.3 353.9,213.6 354,217.2 350.5,215.4 350.5,211.8 350.4,208.4 	"></polygon><polygon class="st3" points="360,213.5 360,216.7 360,220.4 356.6,218.6 356.5,215 356.5,211.6 	"></polygon><polygon class="st3" points="348,184.9 348,184.9 348.1,189.2 347.6,188.9 345,187.5 344.3,182.9 	"></polygon><polygon class="st3" points="353.7,183.1 353.7,187.9 353.7,190.3 350.3,188.4 350.3,186.1 350.2,181.3 	"></polygon><path class="st3" d="M364.7,208.5c0.8,1.5,1.1,3.1,1.2,4.8c0,0.9-0.1,1.8-0.5,2.6c-0.3,0.6-0.9,1-1.5,1.2c-0.8,0.2-1.6,0.2-2.3,0
		c-0.5-0.1-1-0.2-1.5-0.4v-3.3l-3.5-1.9v3.4l-2.6-1.4v-3.4l-3.5-1.8v3.4l-2.7-1.5l0.5,0.3v-4.3l-0.5-0.3l-0.1-17.2l0.5,0.3v-4.3
		l2.2,1.2v2.4l3.5,1.8v-2.4l2.6,1.4v2.4l3.5,1.8V191c0.7,0.4,1.4,1,2,1.6c0.6,0.7,1.2,1.5,1.6,2.4c0.4,0.8,0.8,1.7,1.1,2.6
		c0.2,0.8,0.4,1.7,0.4,2.6c0.1,1.1-0.2,2.2-0.8,3.1c-0.5,0.8-1.4,1.3-2.4,1.2C362.9,205.6,364,207,364.7,208.5z M361.2,211.2
		c0.2-0.4,0.2-0.8,0.2-1.2c0-0.5-0.1-1-0.2-1.5c-0.1-0.5-0.3-1-0.6-1.5c-0.2-0.4-0.5-0.8-0.8-1.2c-0.3-0.3-0.7-0.6-1.1-0.8l-6.7-3.4
		v6.8l6.5,3.4c0.3,0.2,0.7,0.3,1.1,0.3c0.3,0,0.6,0,0.9-0.2C360.9,211.8,361.1,211.5,361.2,211.2 M352,191.2v6.5l5.9,3.1
		c0.6,0.4,1.3,0.4,1.9,0.1c0.6-0.5,0.9-1.2,0.8-2c0-1-0.3-1.9-0.7-2.7c-0.4-0.8-1-1.4-1.8-1.8L352,191.2"></path><polygon class="st3" points="359.8,186.3 359.8,191.1 359.8,193.5 356.4,191.6 356.3,189.3 356.3,184.5 	"></polygon><polygon class="st0" points="359.8,186.3 363.2,184.2 363.2,189.1 359.8,191.1 	"></polygon></g></svg>