<svg transform="scale(2)" version="1.1" id="Layer_1" xmlns="http://www.w3.org/2000/svg" xmlns:xlink="http://www.w3.org/1999/xlink" x="0px" y="0px" viewBox="0 0 500 500" xml:space="preserve" class="show_show__wrapper__graphic__5Waiy "><title>React</title><style type="text/css">
	.st0{fill:#7F8CFF;}
	.st1{fill:#FA6C00;}
	.st2{fill:#FEC617;}
	.st3{opacity:0.3;fill:#E2E2E2;enable-background:new    ;}
	.st4{opacity:0.5;fill:#FA6C00;enable-background:new    ;}
	.st5{fill:#FFC285;}
	.st6{fill:#E2E2E2;}
	.st7{fill:#68E1FD;}
	.st8{fill:#373EA6;}
	.st9{fill:#E54B5D;}
	.st10{fill:#22B573;}
</style><path class="st0" id="Shadow" d="M481.9,281.2c-50.3,27-198.1,112.3-244.7,139.2c-8.8,5.1-19.6,5.1-28.4-0.1L31.6,316.9
	c-7-4.1-4.8-11.9,2.3-15.9l247.3-143.7c2.6-1.5,5.8-1.5,8.4,0l192.5,109.5c4,2.2,5.4,7.3,3.1,11.2
	C484.4,279.4,483.3,280.5,481.9,281.2z"></path><g id="Trophy"><path class="st1" d="M216.8,291.5c0,0-6.6,7.9-7.2,12s-0.1,25,36.5,24.8s34.2-22.3,33.6-24s-8.3-14.1-8.3-14.1"></path><ellipse class="st2" cx="244.4" cy="295" rx="28.3" ry="16.2"></ellipse><ellipse class="st3" cx="244.4" cy="295" rx="28.3" ry="16.2"></ellipse><ellipse class="st3" cx="244.4" cy="295" rx="28.3" ry="16.2"></ellipse><path class="st1" d="M208.3,250.2c-10.3-7.3-26.1,4.8-37,5.2c-7.5,0.3-13.1-2.8-15.8-9.9c-1.1-3-2.7-7.4-2.6-10.7
		c0.1-4.3,3.7-7,6.7-9.5c9.3-8,22.8-10.9,30.5-20.5c3.6-4.5-2.8-11-6.4-6.4c-6.8,8.5-19.4,11.6-27.9,18.4c-4,3.2-8.9,7-10.9,11.9
		s-0.6,10.9,0.8,15.9c2.8,9.9,8.9,17.9,19.6,19.5c5.2,0.7,10.5,0.3,15.5-1.1c3.5-0.9,6.9-2.2,10.3-3.3c1.5-0.5,3-1,4.6-1.4
		c0.8-0.2,1.5-0.4,2.3-0.6c2-0.9,3.1,0.4,3.3,3.7c-5.8,1.1-3.3,9.9,2.4,8.8C213,268.4,216.7,256.1,208.3,250.2z"></path><path class="st1" d="M324.1,118c-6,1.6-11.9,6.3-16.9,9.7c-5.5,3.7-10.8,7.7-16,11.8c-4.6,3.6,1.9,10.1,6.5,6.4
		c7.6-6.1,15.7-11.7,24.1-16.6c2.1-1.2,4.9-4,7.2-1.6c1.4,1.4,1.2,4.8,1.1,6.5c-0.3,4.5-1.3,9-3,13.2c-6.3,17.3-20.2,30.3-33.2,42.7
		c-4.2,4.1,2.2,10.5,6.5,6.4c17.3-16.5,37-36,38.8-61.4C339.8,126.4,334.9,115,324.1,118z"></path><path class="st2" d="M237.5,264.8c0,0,1.1,10.9-2.5,17.6c-1.9,3.5-4,6.9-6.3,10.2c0,0-1,10.9,16.1,10.9S259,293,259,293
		c-6.2-8-8.4-18.4-6.1-28.2"></path><path class="st4" d="M259,293c-6.2-8-8.4-18.4-6.1-28.2h-5.2c0.3,13-0.4,28.3-8.7,38.2c1.9,0.4,3.9,0.5,5.8,0.5
		C261.9,303.5,259,293,259,293z"></path><path class="st2" d="M183.7,156.9v46.5c0,0,0.8,63.6,60.9,63.6s58.2-64.1,58.2-64.1v-46"></path><path class="st4" d="M302.8,203v-46h-34.4c0.3,30-1.4,63.2-20.9,87c-6.7,8.1-14.8,14.9-24,20c6.8,2.1,13.9,3.2,21.1,3.1
		C304.6,267.1,302.8,203,302.8,203z"></path><ellipse class="st2" cx="243.2" cy="156.9" rx="59.5" ry="35.1"></ellipse><ellipse class="st3" cx="243.2" cy="156.9" rx="59.5" ry="35.1"></ellipse><ellipse class="st1" cx="244.6" cy="156" rx="49.7" ry="27.8"></ellipse></g><g id="Character"><path d="M198.4,116.8c-1.2-3.2-2.3-6.4-3.3-9.7c-1.5-4.6-3.2-9.4-3.6-14.3c0.9-2.3,3.9-4,6.1-4.5c2.7-0.7,5.5,0.5,8.2,0.5
		c3.6-0.1,6.4-1.5,9.8-2.4c3.5-0.9,7.1-0.7,10.5,0.5c6.4,2,13,1.3,18.4-3c3-2.4,5.4-4.4,9.3-5.4c5.9-1.6,12.1-0.5,16,4.6
		c3.5,4.5,4.3,10.4,0.5,15.1c-1.9,2.3-4.7,3.4-7.5,4.2c-2.6,0.8-5.1,2.3-7.8,2.8l-0.3,0.1c-2.5,0.4-5.1,0.3-7.6,1
		c-3.2,0.9-6.1,2.5-9.2,3.6c-4.1,1.5-8.1,0.9-12.4,0.4c-5.4-0.7-8.2,1-12.4,4.1c-0.2,0.2-0.5,0.4-0.8,0.5c-3,1.8-6.4,2.7-9.8,2.6
		C201.2,117.1,199.8,117,198.4,116.8z"></path><path class="st5" d="M296,81.6c0.9-1.6,1.9-3.3,2.7-5.1c0.3-3.2,0.4-6.4,0.4-9.6c-0.2-1.4-0.2-2.7,0-4.1c0.1-0.9,0.9-1.6,1.8-1.6
		c0.1,0,0.3,0,0.4,0.1c1.2,0.5,2,1.6,2.1,2.9c0.2,1.1,0.4,2.1,0.5,3.2c1.7-3,3.1-6,4.3-9.2c0.8-2,4-0.9,3.2,1.1l-0.9,2.2
		c0.8-1.2,1.7-2.3,2.6-3.4c1.1-1.3,3.8-0.5,3,1.5c-1.1,2.6-2.4,5.1-3.8,7.5c1.2-1.5,2.4-3,3.5-4.5c1.3-1.8,4.1,0.1,2.8,1.9
		c-1.6,2.2-3.2,4.3-4.9,6.3c1-0.5,1.9-0.9,2.9-1.3c2-0.8,3.5,2.2,1.5,3s-3.8,1.7-5.6,2.6c0,0.1-0.1,0.1-0.1,0.2
		c-2.9,5.2-5.9,10.3-9,15.4c-1.1,1.8-4,0-2.8-1.9c0.5-0.8,1-1.6,1.4-2.3c-0.5-0.1-0.9-0.5-1.2-0.9c-0.8,0.5-1.8,0.2-2.3-0.6
		c-0.2-0.3-0.2-0.6-0.2-0.9c-0.9,0.4-1.9,0-2.3-0.9C295.7,82.7,295.7,82.1,296,81.6z"></path><path d="M305.7,68.4c1.9,2,3.7,4.5,2.9,7.4c-0.1,0.3-0.3,0.4-0.6,0.4s-0.4-0.3-0.4-0.6c0.7-2.6-1-4.7-2.7-6.5
		C304.6,68.7,305.3,68,305.7,68.4z"></path><path d="M307.9,66.5c1.2-2.5,2.2-5,3.1-7.6c0.1-0.4,0.8-0.3,0.7,0.2c-0.9,2.7-2,5.2-3.2,7.8C308.3,67.3,307.6,67,307.9,66.5z"></path><path d="M311.1,68.3c1.9-2.8,3.5-5.8,4.6-9c0.1-0.4,0.9-0.3,0.7,0.2c-1.1,3.2-2.7,6.3-4.7,9.1C311.5,69,310.8,68.7,311.1,68.3z"></path><path d="M312.6,72c1.8-2.1,3.4-4.3,4.8-6.7c0.2-0.4,0.9-0.1,0.6,0.3c-1.4,2.4-3.1,4.8-4.9,6.9C312.9,72.8,312.4,72.3,312.6,72z"></path><path class="st6" d="M228.7,182.3c9.2,1.8,22.1,3.3,35.2,0.7c7.8-1.6,15.2-4.4,22.2-8.3c0.1-13-3.8-26.1-7.2-38.7l-28.6,7.4
		c-1.9,0.3-13.9,21.4-22.4,38.8l0.3,0.1C228.3,182.3,228.5,182.3,228.7,182.3z"></path><path class="st7" d="M250,131c1.7-8.7,5.6-18.5,2.3-26.7c0.4-1.1,3.4-1.4,3.8-2l5.1-1.9c9.7-0.3,19-4.4,25.8-11.4
		c4-4.2,7.6-8.8,10.5-13.8c3.5,2.1,6.6,4.7,9.2,7.8c1.4,1.6,2.6,3.2,3.8,5c-5,10.4-14.6,25.5-29.9,31.3c0,0-0.5,5.8-1,19.1
		c0,0-11.5,10.4-29.9,6.8C249.8,139.9,249.9,136.3,250,131z"></path><path class="st7" d="M254.9,102.1c0,0-19.4,19.9-56,38.4c0,0,2.1,11.5,6.9,15.9c0,0,42.2-19.1,52-36.2"></path><path class="st5" d="M269.5,88.3c0,0,4.1,11.8-3.4,17.1s-17.7-5.8-14.9-16.3S264.7,78.2,269.5,88.3z"></path><path d="M250.1,103.8c1.2,0.3,2.5-0.1,3.4-1c1.1-1.1,1-2.7,1-4.2c-0.1-1.9,0.8-3.8,2.5-4.8c2-1.3,4.4-1.7,6.2-3.3
		c0.2-0.2,0.4-0.4,0.5-0.5c-0.2,0.2-0.5,0.4-0.8,0.6c-2.9,1.8-7.2,2.2-8.6,2.9s0.8,6-1.6,8.4s-8.1-12.4-4.8-16.4s14.2-8.7,19-2
		c-0.1,0.6-0.3,1.2-0.5,1.8c-0.1,1.8-0.8,3.5-1.9,4.9c-1.8,2.2-4.3,2.7-6.7,4c-1.5,0.8-2.5,2.3-2.6,4c-0.1,1.4,0.1,2.8-0.4,4.1
		c-0.9,1.9-3,2.9-5,2.4C249.4,104.4,249.7,103.7,250.1,103.8z"></path><path class="st7" d="M179.9,157.2c2.4-1.5,4.8-2.9,7.4-4.1c-1.8,0.5-3.6,1.1-5.4,1.8c-2,0.7-3.3-2.4-1.3-3.1c2.5-0.9,5-1.7,7.6-2.4
		c-1-0.2-2.1-0.4-3.1-0.6c-2.1-0.4-1.7-3.8,0.4-3.4s4.1,0.8,6.1,1l0.2-0.1c2.4-1.2,4.8-2.4,7.3-3.5c0.8,3.7,2.4,7.3,4.6,10.4
		c-2,2.4-3.9,4.9-5.6,7.5c-0.6,1.2-1.3,2.4-2.3,3.4c-0.6,0.7-1.7,0.9-2.4,0.3c-0.1-0.1-0.2-0.2-0.3-0.3c-0.7-1.1-0.7-2.5-0.1-3.6
		c0.4-1,0.9-2,1.4-3c-3,1.5-6,3.2-8.8,5.1c-1.8,1.2-3.9-1.5-2-2.7l2-1.3c-1.3,0.5-2.6,1-4,1.4C179.9,160.5,178.1,158.3,179.9,157.2z
		"></path><path class="st7" d="M190.7,156.1c-2.4,1.4-4.7,2.9-6.9,4.5c-0.4,0.3-0.8-0.2-0.5-0.5c2.2-1.7,4.6-3.2,7-4.6
		C190.8,155.2,191.1,155.9,190.7,156.1z"></path><path class="st7" d="M189.1,152.8c-3.2,1.2-6.2,2.8-8.9,4.8c-0.4,0.3-0.9-0.3-0.5-0.5c2.8-2,5.8-3.7,9.1-4.9
		C189.2,152,189.5,152.6,189.1,152.8z"></path><path class="st7" d="M189.8,148.9c-2.7,0.7-5.3,1.6-7.8,2.8c-0.4,0.2-0.7-0.4-0.3-0.6c2.6-1.2,5.2-2.2,8-2.9c0.2,0,0.4,0.1,0.4,0.3
		S190,148.9,189.8,148.9L189.8,148.9z"></path><path class="st5" d="M179.9,157.2c2.4-1.5,4.8-2.9,7.4-4.1c-1.8,0.5-3.6,1.1-5.4,1.8c-2,0.7-3.3-2.4-1.3-3.1c2.5-0.9,5-1.7,7.6-2.4
		c-1-0.2-2.1-0.4-3.1-0.6c-2.1-0.4-1.7-3.8,0.4-3.4s4.1,0.8,6.1,1l0.2-0.1c2.4-1.2,4.8-2.4,7.3-3.5c0.8,3.7,2.4,7.3,4.6,10.4
		c-2,2.4-3.9,4.9-5.6,7.5c-0.6,1.2-1.3,2.4-2.3,3.4c-0.6,0.7-1.7,0.9-2.4,0.3c-0.1-0.1-0.2-0.2-0.3-0.3c-0.7-1.1-0.7-2.5-0.1-3.6
		c0.4-1,0.9-2,1.4-3c-3,1.5-6,3.2-8.8,5.1c-1.8,1.2-3.9-1.5-2-2.7l2-1.3c-1.3,0.5-2.6,1-4,1.4C179.9,160.5,178.1,158.3,179.9,157.2z
		"></path><path d="M190.7,156.1c-2.4,1.4-4.7,2.9-6.9,4.5c-0.4,0.3-0.8-0.2-0.5-0.5c2.2-1.7,4.6-3.2,7-4.6
		C190.8,155.2,191.1,155.9,190.7,156.1z"></path><path d="M189.1,152.8c-3.2,1.2-6.2,2.8-8.9,4.8c-0.4,0.3-0.9-0.3-0.5-0.5c2.8-2,5.8-3.7,9.1-4.9C189.2,152,189.5,152.6,189.1,152.8
		z"></path><path d="M189.8,148.9c-2.7,0.7-5.3,1.6-7.8,2.8c-0.4,0.2-0.7-0.4-0.3-0.6c2.6-1.2,5.2-2.2,8-2.9c0.2,0,0.4,0.1,0.4,0.3
		S190,148.9,189.8,148.9L189.8,148.9z"></path></g><g id="Ladder"><path class="st8" d="M305,187.5L338.5,329c0.8,3.4-4.4,4.9-5.2,1.5L299.8,189C299,185.6,304.2,184.1,305,187.5L305,187.5z"></path><path class="st8" d="M273.6,204.3l33.5,141.5c0.8,3.4-4.4,4.9-5.2,1.5l-33.5-141.5C267.5,202.3,272.8,200.9,273.6,204.3
		L273.6,204.3z"></path><path class="st8" d="M308.5,209.8l-31.4,17.6c-3.1,1.7-5.8-3-2.8-4.7l31.4-17.6C308.8,203.4,311.6,208.1,308.5,209.8z"></path><path class="st8" d="M311.8,229.5l-30.1,16.8c-3.1,1.7-5.8-3-2.8-4.7l30.1-16.8C312.1,223.1,314.8,227.8,311.8,229.5L311.8,229.5z"></path><path class="st8" d="M315.4,245.4l-30.1,16.8c-3.1,1.7-5.8-3-2.8-4.7l30.1-16.8C315.8,239,318.5,243.7,315.4,245.4L315.4,245.4z"></path><path class="st8" d="M320.2,262.6l-29.8,16.7c-3.1,1.7-5.8-3-2.7-4.7l29.8-16.7C320.5,256.2,323.2,260.9,320.2,262.6z"></path><path class="st8" d="M324.3,278.2L294.4,295c-3.1,1.7-5.8-3-2.8-4.7l29.9-16.7C324.6,271.9,327.3,276.6,324.3,278.2L324.3,278.2z"></path><path class="st8" d="M328.8,296.5L297.4,314c-3.1,1.7-5.8-3-2.8-4.7l31.4-17.6C329.1,290,331.9,294.8,328.8,296.5L328.8,296.5z"></path></g><g id="_1"><path class="st7" d="M225.9,346.2l45.2,23.4l-9.3,4.1l-33-17.1l-7.4,3.3l-6.1-3.2c1-0.5,1.9-1.3,2.7-2.1c0.5-0.6,0.9-1.2,1-2
		c0.1-0.5,0-1-0.1-1.5c-0.1-0.4-0.2-0.8-0.4-1.1l-0.3-0.4L225.9,346.2z"></path><path class="st7" d="M224,371.5l-6.1,2.7l5,3.7l6.1-2.7l3.9,2.9l-6.1,2.7l7.2,5.3l-5.2,2.3l-7.2-5.3l-6.6,2.9l7.2,5.2l-5.2,2.3
		l-7.2-5.3l-6.2,2.7l-3.8-2.9l6.1-2.7l-5.1-3.7l-6.1,2.7l-3.9-2.9l6.1-2.7l-7.2-5.2l5.2-2.3l7.2,5.3l6.6-2.9l-7.2-5.3l5.2-2.3
		l7.2,5.3l6.1-2.7L224,371.5z M217.7,380.2l-5-3.7l-6.6,2.9l5.1,3.7L217.7,380.2"></path></g><g id="Confetti"><path class="st9" d="M101.6,178.9c-1.7-4.1-4.8-9.6-10-9.1c-2.1,0.2-3.8,1.6-4.5,3.5c-0.9,2.5,0,5,0.6,7.5c0.2,0.7,0.9,3.3,0.3,3.9
		s-1.9-1.5-2.4-2.1c-1.4-1.8-2.9-3.4-5.2-4c-5.8-1.3-7.4,5.4-6,9.7c1,2.8,5.5,1.6,4.5-1.2c-0.3-0.9-1-2.9-0.1-3.6s1.7,0.3,2.3,1
		c1.1,1.2,1.8,2.7,3.1,3.7c2.3,2,5.7,2.2,7.6-0.5s0.8-6.5,0.1-9.4c-0.4-1.5-1.1-4.8,1.6-3.4c1.7,0.9,2.9,3.6,3.6,5.3
		C98.2,182.9,102.7,181.6,101.6,178.9z"></path><path class="st7" d="M140.4,116c-7.5,0-7.6,11.7,0,11.7S148,116,140.4,116z"></path><path class="st10" d="M369.2,149c-3.8-3.9-9.8,2.1-6,6c6.5,6.6,8.8,16.3,6,25.1c-1.6,5.2,6.6,7.4,8.1,2.2
		C380.9,170.6,377.8,157.8,369.2,149z"></path><path class="st2" d="M360.3,236.8c-1.1-1.1-2.6-1.7-4.1-1.7h-0.7c-1.6,0-3,0.6-4.1,1.7c-2.3,2.3-2.3,6,0,8.3
		c1.1,1.1,2.6,1.7,4.1,1.7h0.7c1.5,0,3-0.6,4.1-1.7C362.6,242.8,362.6,239.1,360.3,236.8z"></path><path class="st9" d="M135,187.9c-1.1-1.1-2.6-1.7-4.1-1.7h-0.7c-1.6,0-3,0.6-4.2,1.7c-1.1,1.1-1.7,2.6-1.7,4.1c0,1.6,0.6,3,1.7,4.1
		c1.1,1.1,2.6,1.7,4.2,1.7h0.7c1.6,0,3-0.6,4.1-1.7c1.1-1.1,1.7-2.6,1.7-4.1C136.7,190.5,136.1,189,135,187.9z"></path><path class="st7" d="M368.2,271.5l-16.7-14.2c-2.4-2-5.9-2.4-8.3,0c-2.1,2.1-2.4,6.2,0,8.3l16.7,14.2c2.4,2,5.9,2.4,8.3,0
		C370.4,277.7,370.7,273.5,368.2,271.5z"></path><path class="st7" d="M132.9,298.3c-0.7,0.4-2.4,0.6-1.9-0.5c0.2-0.4,0.9-0.6,1.2-0.9c1-0.6,2-1.4,2.8-2.3c1.5-1.7,1.6-4.3,0.2-6.1
		c-1.5-1.9-4.1-2.3-6.4-2.5c-0.9-0.1-3,0.1-3.7-0.8c-1.1-1.4,1-2.8,2.1-3.3c3-1.2,1.7-6.1-1.3-4.9c-3.6,1.4-6.9,4.5-6,8.7
		c1,4.7,5.6,4.8,9.4,5.3c2.3,0.3,1.3,0.7,0,1.6c-0.8,0.5-1.6,1.1-2.3,1.7c-1.3,1.3-1.8,3.2-1.4,5c1.2,4.3,6.3,5.1,9.7,3.3
		C138.3,301.1,135.7,296.7,132.9,298.3z"></path></g></svg>